<svg width="25" height="24" viewBox="0 0 25 24" fill="none" xmlns="http://www.w3.org/2000/svg">
<path opacity="0.987" fill-rule="evenodd" clip-rule="evenodd" d="M2.33537 3.00382C3.57537 2.99364 4.81518 3.00382 6.05488 3.03431C5.27982 4.12711 4.49732 5.21449 3.70732 6.2965C3.58171 6.46638 3.49024 6.64931 3.43293 6.84528C4.455 6.874 5.47122 6.84351 6.48171 6.75382C7.39841 5.54034 8.29268 4.31065 9.16463 3.0648C10.1803 2.9937 11.1965 2.98351 12.2134 3.03431C11.3395 4.27412 10.4654 5.514 9.59146 6.75382C10.0899 6.82419 10.5981 6.85467 11.1159 6.84528C11.6037 6.8351 12.0915 6.82498 12.5793 6.8148C12.6298 6.759 12.6907 6.71839 12.7622 6.69284C13.6212 5.4626 14.4952 4.24309 15.3841 3.03431C16.3807 2.98351 17.3766 2.9937 18.372 3.0648C17.6419 4.10986 16.9001 5.14644 16.1463 6.17455C15.9911 6.37943 15.8793 6.60297 15.811 6.84528C16.833 6.874 17.8493 6.84351 18.8598 6.75382C19.7676 5.54114 20.6517 4.3115 21.5122 3.0648C21.7429 3.02717 21.9055 3.12876 22 3.36967C21.906 8.61437 21.7637 13.8583 21.5732 19.1014C21.6713 20.5061 21.0513 21.4105 19.7134 21.8148C14.4872 21.8751 9.2636 21.8548 4.04268 21.7538C3.22921 21.4688 2.71091 20.9098 2.4878 20.077C2.25968 14.5094 2.09709 8.94022 2 3.36967C2.08291 3.21583 2.1947 3.09388 2.33537 3.00382ZM9.28659 9.52821C9.45555 9.52339 9.61811 9.55388 9.77439 9.61967C12.1063 10.7495 14.21 12.2027 16.0854 13.9794C16.2886 14.2436 16.2886 14.5079 16.0854 14.7721C14.132 16.6436 11.9166 18.1274 9.43902 19.2233C9.13012 19.191 8.92683 19.0285 8.82927 18.7355C8.7886 15.829 8.7886 12.9225 8.82927 10.016C8.91177 9.78126 9.06421 9.61864 9.28659 9.52821Z" fill="white"/>
</svg>
