<svg width="25" height="24" viewBox="0 0 25 24" fill="none" xmlns="http://www.w3.org/2000/svg">
<path d="M12.3777 2.00649C12.4468 2.00583 12.4468 2.00583 12.5174 2.00516C14.4347 1.991 14.4347 1.991 15.2457 2.20631C15.3198 2.22539 15.3198 2.22539 15.3954 2.24487C17.562 2.81581 19.5648 4.01688 20.9223 5.82435C20.9713 5.88731 21.0204 5.95027 21.0709 6.01514C22.2151 7.5171 22.9813 9.47779 22.9935 11.3776C22.9941 11.4468 22.9941 11.4468 22.9948 11.5174C23.009 13.4347 23.009 13.4347 22.7937 14.2457C22.7746 14.3197 22.7746 14.3197 22.7551 14.3953C22.1842 16.5619 20.9831 18.5648 19.1756 19.9222C19.1127 19.9713 19.0497 20.0203 18.9848 20.0709C17.4829 21.2151 15.5222 21.9813 13.6223 21.9934C13.5532 21.9941 13.5532 21.9941 13.4826 21.9948C11.5653 22.0089 11.5653 22.0089 10.7543 21.7936C10.6802 21.7745 10.6802 21.7745 10.6046 21.7551C8.43805 21.1841 6.4352 19.9831 5.07774 18.1756C5.02869 18.1126 4.97963 18.0497 4.9291 17.9848C3.78486 16.4828 3.01866 14.5222 3.00653 12.6223C3.00609 12.5762 3.00564 12.5301 3.00519 12.4826C2.99103 10.5652 2.99103 10.5652 3.20634 9.75429C3.22542 9.6802 3.22542 9.6802 3.2449 9.60461C3.81584 7.43802 5.01691 5.43517 6.82438 4.07771C6.88734 4.02866 6.9503 3.9796 7.01517 3.92907C8.51713 2.78482 10.4778 2.01863 12.3777 2.00649ZM11.1286 5.63721C11.0926 5.66294 11.0566 5.68867 11.0194 5.71518C10.7601 6.07821 10.7817 6.63811 10.7521 7.06586C10.7469 7.13562 10.7417 7.20538 10.7363 7.27725C10.7198 7.49859 10.7039 7.71998 10.688 7.94137C10.6719 8.16432 10.6557 8.38725 10.6391 8.61017C10.6288 8.74857 10.6188 8.887 10.6091 9.02545C10.6045 9.08753 10.5999 9.14961 10.5952 9.21356C10.5913 9.26844 10.5873 9.32331 10.5833 9.37985C10.5672 9.50477 10.5672 9.50477 10.5048 9.56715C10.4084 9.57932 10.3115 9.58755 10.2146 9.59417C10.1527 9.59855 10.0908 9.60294 10.0271 9.60746C9.95957 9.61201 9.89207 9.61656 9.82252 9.62124C9.68029 9.63153 9.53807 9.64185 9.39585 9.65219C9.17111 9.66822 8.94636 9.68404 8.72158 9.69937C8.50499 9.71427 8.28849 9.73007 8.07198 9.746C8.00548 9.7503 7.93899 9.7546 7.87048 9.75902C7.22183 9.79996 7.22183 9.79996 6.66087 10.0942C6.46092 10.3282 6.38025 10.4844 6.37668 10.7859C6.37588 10.8447 6.37507 10.9034 6.37425 10.9639C6.37379 11.0276 6.37333 11.0913 6.37285 11.1569C6.37235 11.2223 6.37185 11.2877 6.37133 11.355C6.37046 11.4937 6.3698 11.6323 6.3693 11.771C6.36823 11.9827 6.3655 12.1943 6.36274 12.4059C6.36211 12.5406 6.36158 12.6753 6.36116 12.8099C6.36006 12.8731 6.35897 12.9363 6.35785 13.0014C6.35915 13.4274 6.43907 13.6449 6.72383 13.9703C7.05634 14.262 7.70277 14.2182 8.12071 14.2478C8.22314 14.2557 8.22314 14.2557 8.32764 14.2636C8.5439 14.2801 8.76019 14.2961 8.97649 14.3119C9.19457 14.3281 9.41263 14.3443 9.63068 14.3609C9.76596 14.3712 9.90127 14.3812 10.0366 14.3909C10.0972 14.3955 10.1578 14.4001 10.2203 14.4048C10.2739 14.4087 10.3275 14.4126 10.3827 14.4167C10.5048 14.4328 10.5048 14.4328 10.5672 14.4952C10.5797 14.5896 10.5882 14.6846 10.5952 14.7797C10.5998 14.8403 10.6044 14.9009 10.6091 14.9634C10.6138 15.0295 10.6186 15.0957 10.6235 15.1638C10.6341 15.3032 10.6447 15.4426 10.6553 15.5819C10.6717 15.8022 10.688 16.0224 10.7041 16.2427C10.7198 16.4549 10.7359 16.6671 10.7521 16.8793C10.7567 16.9444 10.7614 17.0095 10.7661 17.0766C10.7939 17.729 10.7939 17.729 11.0448 18.3101C11.0827 18.3378 11.1207 18.3654 11.1598 18.3939C11.1977 18.4229 11.2357 18.4518 11.2748 18.4816C11.4567 18.6017 11.5697 18.6207 11.786 18.6233C11.8447 18.6241 11.9034 18.6249 11.9639 18.6257C12.0276 18.6262 12.0913 18.6266 12.1569 18.6271C12.2223 18.6276 12.2877 18.6281 12.3551 18.6286C12.4937 18.6295 12.6324 18.6302 12.771 18.6307C12.9827 18.6317 13.1943 18.6345 13.406 18.6372C13.5406 18.6379 13.6753 18.6384 13.81 18.6388C13.8731 18.6399 13.9363 18.641 14.0014 18.6421C14.4275 18.6408 14.645 18.5609 14.9703 18.2761C15.262 17.9436 15.2182 17.2972 15.2479 16.8793C15.2531 16.811 15.2583 16.7427 15.2637 16.6723C15.2802 16.4561 15.2961 16.2398 15.312 16.0235C15.3281 15.8054 15.3443 15.5873 15.3609 15.3693C15.3712 15.234 15.3812 15.0987 15.3909 14.9634C15.3955 14.9028 15.4001 14.8421 15.4048 14.7797C15.4107 14.6993 15.4107 14.6993 15.4167 14.6173C15.4328 14.4952 15.4328 14.4952 15.4952 14.4328C15.5916 14.4206 15.6885 14.4124 15.7854 14.4058C15.8473 14.4014 15.9092 14.397 15.9729 14.3925C16.0404 14.3879 16.1079 14.3834 16.1775 14.3787C16.3197 14.3684 16.4619 14.3581 16.6042 14.3477C16.8289 14.3317 17.0536 14.3159 17.2784 14.3006C17.495 14.2857 17.7115 14.2699 17.928 14.2539C17.9945 14.2496 18.061 14.2453 18.1295 14.2409C18.7782 14.2 18.7782 14.2 19.3391 13.9057C19.5391 13.6718 19.6197 13.5156 19.6233 13.214C19.6241 13.1553 19.6249 13.0965 19.6257 13.036C19.6262 12.9724 19.6267 12.9087 19.6271 12.8431C19.6279 12.745 19.6279 12.745 19.6287 12.6449C19.6295 12.5063 19.6302 12.3676 19.6307 12.229C19.6318 12.0173 19.6345 11.8057 19.6373 11.594C19.6379 11.4593 19.6384 11.3247 19.6388 11.19C19.6405 11.0952 19.6405 11.0952 19.6422 10.9986C19.641 10.6238 19.6071 10.4168 19.3628 10.1286C19.3242 10.0745 19.3242 10.0745 19.2848 10.0194C18.9218 9.7601 18.3619 9.78166 17.9341 9.7521C17.8644 9.74688 17.7946 9.74167 17.7227 9.7363C17.5014 9.71979 17.28 9.70385 17.0586 9.68801C16.8357 9.67189 16.6127 9.65565 16.3898 9.63906C16.2514 9.62877 16.113 9.61876 15.9745 9.60906C15.9124 9.60447 15.8504 9.59988 15.7864 9.59516C15.7315 9.59124 15.6767 9.58732 15.6201 9.58328C15.4952 9.56715 15.4952 9.56715 15.4328 9.50477C15.4203 9.4103 15.4118 9.31531 15.4048 9.22028C15.4002 9.15965 15.3956 9.09903 15.3909 9.03656C15.3862 8.97042 15.3814 8.90428 15.3765 8.83613C15.3659 8.69675 15.3553 8.55737 15.3447 8.41799C15.3283 8.19776 15.312 7.97752 15.2959 7.75727C15.2802 7.54505 15.2641 7.33287 15.2479 7.12068C15.2433 7.05555 15.2386 6.99042 15.2339 6.92332C15.2061 6.27092 15.2061 6.27092 14.9552 5.68984C14.9173 5.66218 14.8793 5.63452 14.8402 5.60602C14.8023 5.57707 14.7643 5.54812 14.7252 5.5183C14.5433 5.39819 14.4303 5.37921 14.214 5.37665C14.1259 5.37544 14.1259 5.37544 14.0361 5.37422C13.9724 5.37376 13.9087 5.3733 13.8431 5.37282C13.7777 5.37232 13.7123 5.37182 13.6449 5.3713C13.5063 5.37043 13.3676 5.36976 13.229 5.36927C13.0173 5.3682 12.8057 5.36546 12.594 5.36271C12.4594 5.36208 12.3247 5.36155 12.19 5.36113C12.1269 5.36003 12.0637 5.35894 11.9986 5.35782C11.6238 5.35897 11.4169 5.39292 11.1286 5.63721Z" fill="white"/>
</svg>
