<svg width="25" height="24" viewBox="0 0 25 24" fill="none" xmlns="http://www.w3.org/2000/svg">
<path opacity="0.984" fill-rule="evenodd" clip-rule="evenodd" d="M15.05 2.03791C16.1225 1.88737 17.0421 2.18515 17.8088 2.93126C18.155 3.38964 18.2339 3.88887 18.0453 4.42893C18.1913 4.50208 18.3489 4.52835 18.5183 4.50775C18.5295 4.59414 18.5119 4.67297 18.4657 4.74423C16.9579 5.73589 15.8806 7.07591 15.2339 8.76428C14.9427 9.85285 14.6449 10.9389 14.3405 12.0224C13.8162 13.2118 12.9141 13.9387 11.6342 14.2032C10.0211 14.4517 8.40958 14.4342 6.79966 14.1506C4.74255 13.7922 3.7441 12.566 3.80433 10.4721C3.81214 9.13665 4.10117 7.86668 4.6714 6.66229C5.73091 4.80503 7.33367 3.80658 9.4797 3.66696C10.3914 3.76338 11.3023 3.84221 12.2123 3.90343C12.9791 3.00368 13.925 2.38184 15.05 2.03791ZM15.4178 3.19401C15.9645 3.0985 16.3937 3.27367 16.7053 3.71951C16.7372 3.93165 16.7284 4.14185 16.679 4.3501C15.925 4.28237 15.1718 4.20354 14.4194 4.11363C14.6637 3.70258 14.9965 3.39602 15.4178 3.19401ZM7.37771 9.92037C8.23968 9.79578 8.9491 10.0585 9.50597 10.7086C9.87293 11.6477 9.56635 12.2696 8.58635 12.5741C7.664 12.7805 6.90203 12.5265 6.30044 11.8122C5.9771 11.17 6.10848 10.6357 6.69456 10.2094C6.91743 10.086 7.14518 9.98963 7.37771 9.92037Z" fill="white"/>
<path opacity="0.984" fill-rule="evenodd" clip-rule="evenodd" d="M19.0969 6.08424C19.744 5.95434 20.1557 6.19959 20.3318 6.81994C20.4039 7.82411 20.2813 8.80506 19.964 9.76272C19.3556 11.6042 19.0403 13.496 19.0181 15.4381C18.9703 16.6113 18.9352 17.7849 18.913 18.9589C18.8397 19.3771 18.6383 19.7186 18.3087 19.9836C16.9185 20.9256 15.377 21.381 13.6843 21.3499C11.6264 21.5084 9.5945 21.3508 7.58852 20.877C6.30126 20.5532 5.17144 19.9489 4.19906 19.064C3.30537 17.8993 2.91125 16.5767 3.01669 15.0965C2.99705 14.38 3.05836 13.6705 3.20062 12.9683C3.27396 12.8617 3.36155 12.8442 3.46337 12.9157C3.89252 13.9054 4.60194 14.6148 5.59163 15.044C6.31713 15.3436 7.07033 15.5363 7.85127 15.622C9.55793 15.8304 11.257 15.7867 12.9486 15.4906C13.0607 15.4914 13.1658 15.5177 13.2639 15.5695C13.5717 16.7571 13.8344 17.957 14.0521 19.1691C14.1222 19.1691 14.1923 19.1691 14.2623 19.1691C14.397 17.5565 14.5459 15.945 14.709 14.3346C14.9687 13.7626 15.214 13.1846 15.4447 12.6004C15.7437 11.5446 16.059 10.4936 16.3906 9.44743C16.687 8.55681 17.1074 7.73357 17.6518 6.97759C18.0502 6.53344 18.5319 6.23569 19.0969 6.08424Z" fill="white"/>
<path opacity="0.958" fill-rule="evenodd" clip-rule="evenodd" d="M21.461 8.23877C21.6255 8.54624 21.7568 8.87904 21.8552 9.23721C22.339 10.8223 22.7069 12.4338 22.9587 14.0718C23.217 16.5335 22.2624 18.3377 20.0947 19.4844C20.0231 18.66 20.0319 17.8367 20.121 17.0146C20.6256 16.3732 20.9759 15.655 21.172 14.86C21.2292 13.7583 21.0453 12.6986 20.6202 11.6808C21.02 10.5633 21.3003 9.41594 21.461 8.23877Z" fill="white"/>
</svg>
