<svg width="25" height="24" viewBox="0 0 25 24" fill="none" xmlns="http://www.w3.org/2000/svg">
<path opacity="0.988" fill-rule="evenodd" clip-rule="evenodd" d="M4.01033 2.00412C9.01039 1.99313 14.0104 2.00412 19.0103 2.03702C20.0785 2.18425 20.6487 2.79826 20.7208 3.87912C20.6269 5.97122 20.5611 8.06549 20.5235 10.162C17.4313 10.151 14.3392 10.162 11.2472 10.1949C10.7976 10.2936 10.5235 10.5677 10.4248 11.0173C10.3919 14.1312 10.3809 17.2452 10.3919 20.3594C8.33039 20.3703 6.26901 20.3594 4.2077 20.3265C3.19566 20.0813 2.70224 19.4344 2.72744 18.3857C2.60119 13.5933 2.45862 8.80168 2.2998 4.0107C2.32553 2.85688 2.89572 2.188 4.01033 2.00412Z" fill="white"/>
<path opacity="0.993" fill-rule="evenodd" clip-rule="evenodd" d="M13.484 12.925C16.335 12.914 19.1858 12.925 22.0366 12.9579C22.1134 13.0347 22.1901 13.1114 22.2669 13.1882C22.3108 15.7321 22.3108 18.2759 22.2669 20.8197C22.0805 21.4447 21.6748 21.8505 21.0498 22.0368C18.5059 22.0807 15.9621 22.0807 13.4182 22.0368C13.3414 21.9601 13.2647 21.8834 13.1879 21.8066C13.1441 18.9557 13.1441 16.1048 13.1879 13.254C13.2554 13.1101 13.3541 13.0004 13.484 12.925Z" fill="white"/>
</svg>
