<svg width="24" height="25" viewBox="0 0 24 25" fill="none" xmlns="http://www.w3.org/2000/svg">
<path d="M12.0273 0.0134277H11.9727C5.36034 0.0134277 0 5.37536 0 11.9896V12.0443C0 18.6586 5.36034 24.0205 11.9727 24.0205H12.0273C18.6396 24.0205 24 18.6586 24 12.0443V11.9896C24 5.37536 18.6396 0.0134277 12.0273 0.0134277Z" fill="#5865F2"/>
<path d="M18.0052 6.50571C16.9003 5.99854 15.7164 5.6251 14.4779 5.41146C14.4552 5.40726 14.4324 5.41735 14.4215 5.43838C14.2693 5.70921 14.1003 6.0633 13.9826 6.34086C12.6507 6.14152 11.3256 6.14152 10.0206 6.34086C9.90203 6.05657 9.72713 5.70921 9.5741 5.43838C9.56232 5.41819 9.53963 5.4081 9.51777 5.41146C8.28005 5.6251 7.09532 5.99854 5.99046 6.50571C5.98121 6.50992 5.9728 6.51665 5.96691 6.5259C3.7202 9.88351 3.10469 13.1587 3.40655 16.3935C3.40823 16.4095 3.41664 16.4246 3.42925 16.4339C4.91165 17.5231 6.34782 18.1842 7.75706 18.6224C7.77976 18.6291 7.8033 18.6207 7.8176 18.6022C8.15057 18.1472 8.44823 17.6669 8.703 17.1614C8.71813 17.132 8.70299 17.0966 8.67272 17.0849C8.20101 16.9057 7.75284 16.6879 7.32065 16.4406C7.28617 16.4204 7.28367 16.3716 7.31478 16.3481C7.40559 16.28 7.49639 16.2093 7.583 16.1378C7.59898 16.1244 7.62083 16.1218 7.63933 16.1302C10.4755 17.4255 13.5462 17.4255 16.3487 16.1302C16.3672 16.121 16.3891 16.1244 16.4051 16.137C16.4917 16.2085 16.5825 16.28 16.6741 16.3481C16.7052 16.3716 16.7036 16.4204 16.6691 16.4406C16.2377 16.6929 15.7887 16.9066 15.3162 17.0849C15.2851 17.0966 15.2716 17.132 15.2867 17.1623C15.5474 17.6661 15.8442 18.1463 16.1713 18.6022C16.1848 18.6215 16.2091 18.6299 16.2318 18.6232C17.6478 18.185 19.084 17.5239 20.5664 16.4347C20.579 16.4255 20.5874 16.4103 20.5891 16.3952C20.9506 12.6557 19.9837 9.40745 18.027 6.52758C18.022 6.51833 18.0144 6.51076 18.0043 6.50655L18.0052 6.50571ZM9.12508 14.4237C8.27079 14.4237 7.56787 13.6398 7.56787 12.6767C7.56787 11.7137 8.25818 10.9298 9.12508 10.9298C9.99198 10.9298 10.6966 11.7213 10.6823 12.6767C10.6823 13.6398 9.99198 14.4237 9.12508 14.4237ZM14.884 14.4237C14.0297 14.4237 13.3268 13.6398 13.3268 12.6767C13.3268 11.7137 14.0171 10.9298 14.884 10.9298C15.7509 10.9298 16.4555 11.7213 16.4412 12.6767C16.4412 13.6398 15.7584 14.4237 14.884 14.4237Z" fill="white"/>
</svg>
