<svg width="16" height="16" viewBox="0 0 16 16" fill="none" xmlns="http://www.w3.org/2000/svg">
<path d="M7.07884 1.33485C7.10837 1.33451 7.1379 1.33418 7.16832 1.33383C7.26541 1.33299 7.36242 1.33355 7.4595 1.33419C7.52728 1.33406 7.59505 1.33388 7.66283 1.33364C7.80466 1.33336 7.94647 1.33377 8.0883 1.33466C8.26979 1.33575 8.45122 1.33512 8.63271 1.33398C8.7726 1.33328 8.91248 1.33351 9.05236 1.334C9.11927 1.33413 9.18617 1.33397 9.25307 1.33353C9.34671 1.33304 9.44026 1.33378 9.5339 1.33485C9.56135 1.33446 9.58879 1.33407 9.61707 1.33367C9.78876 1.33727 9.88829 1.37874 10.0167 1.49187C10.1041 1.59444 10.1143 1.70122 10.1334 1.83203C10.1376 1.85892 10.1418 1.88581 10.1462 1.91351C10.159 1.99671 10.1705 2.08002 10.1819 2.16341C10.1893 2.21193 10.1968 2.26045 10.2044 2.31044C10.227 2.45933 10.2481 2.60839 10.2687 2.75756C10.2767 2.81396 10.2846 2.87037 10.2925 2.92678C10.3138 3.07778 10.3348 3.2288 10.3559 3.37983C10.378 3.53864 10.4003 3.69743 10.4225 3.85623C10.4598 4.12221 10.4969 4.3882 10.534 4.65421C10.5768 4.96159 10.6198 5.26895 10.663 5.57629C10.7046 5.87294 10.746 6.16961 10.7875 6.46629C10.8051 6.59223 10.8227 6.71816 10.8404 6.84409C10.8611 6.992 10.8817 7.13991 10.9023 7.28784C10.9098 7.3421 10.9174 7.39635 10.9251 7.4506C10.9355 7.52459 10.9457 7.59859 10.956 7.6726C10.9617 7.714 10.9675 7.7554 10.9735 7.79806C10.9857 7.90486 10.9857 7.90486 10.9857 8.05796C11.0175 8.05762 11.0493 8.05728 11.082 8.05693C11.3817 8.05386 11.6813 8.05153 11.9809 8.05003C12.1349 8.04923 12.289 8.04815 12.443 8.04641C12.5917 8.04475 12.7403 8.04383 12.889 8.04343C12.9457 8.04315 13.0024 8.0426 13.0591 8.04177C13.1386 8.04066 13.218 8.04051 13.2974 8.04058C13.3426 8.04024 13.3879 8.0399 13.4344 8.03955C13.5749 8.06189 13.6195 8.09783 13.7033 8.21107C13.7527 8.49964 13.6319 8.67458 13.4785 8.912C13.4429 8.96866 13.4429 8.96866 13.4066 9.02647C13.3278 9.15086 13.2479 9.27434 13.1675 9.39763C13.1464 9.42995 13.1464 9.42995 13.1249 9.46292C12.6079 10.2555 12.0727 11.0301 11.4833 11.7708C11.4615 11.7982 11.4397 11.8256 11.4173 11.8539C11.1823 12.1486 10.9433 12.4367 10.687 12.7132C10.6124 12.7939 10.5404 12.8762 10.469 12.9597C10.3064 13.147 10.1288 13.3192 9.95225 13.4932C9.85295 13.592 9.75429 13.6913 9.6565 13.7916C9.41058 14.043 9.15845 14.2722 8.88051 14.4884C8.8442 14.5207 8.80788 14.5531 8.77047 14.5865C8.56588 14.6806 8.37318 14.6819 8.15326 14.6415C7.98982 14.5643 7.86577 14.456 7.73222 14.3353C7.71286 14.3182 7.69349 14.3012 7.67354 14.2836C7.34643 13.9947 7.0386 13.6842 6.72894 13.3769C6.68713 13.3355 6.64526 13.294 6.60334 13.2527C6.33597 12.9884 6.09125 12.7158 5.85669 12.4215C5.78185 12.3329 5.70561 12.2457 5.62942 12.1583C5.43352 11.9312 5.24679 11.6983 5.06712 11.4581C5.03057 11.4093 4.99385 11.3606 4.95701 11.3121C4.37328 10.5421 3.84335 9.73329 3.34343 8.90682C3.30874 8.85042 3.27322 8.79451 3.23696 8.7391C3.21955 8.71243 3.20215 8.68575 3.18422 8.65827C3.1609 8.6233 3.1609 8.6233 3.13711 8.58761C3.06877 8.45526 3.07884 8.3574 3.10079 8.21107C3.18396 8.09838 3.22864 8.06203 3.36822 8.03955C3.41275 8.03989 3.45729 8.04023 3.50318 8.04058C3.54017 8.04055 3.54017 8.04055 3.57791 8.04051C3.65912 8.04062 3.74027 8.04181 3.82146 8.04301C3.87788 8.04329 3.9343 8.04351 3.99072 8.04367C4.13899 8.04425 4.28722 8.04575 4.43548 8.04745C4.58685 8.04902 4.73823 8.04971 4.88961 8.05048C5.18646 8.05212 5.48329 8.0548 5.78013 8.05796C5.78217 8.02316 5.7842 7.98836 5.7863 7.9525C5.80792 7.60392 5.84056 7.25806 5.88127 6.91111C5.88757 6.85653 5.89387 6.80195 5.90015 6.74736C5.91702 6.60106 5.93407 6.45478 5.95116 6.3085C5.96549 6.18579 5.97972 6.06308 5.99396 5.94036C6.02754 5.65084 6.06127 5.36133 6.0951 5.07183C6.12989 4.77409 6.16444 4.47632 6.19887 4.17853C6.22858 3.92167 6.25844 3.66482 6.2884 3.40799C6.30624 3.2551 6.32402 3.1022 6.34168 2.94929C6.35826 2.80569 6.37502 2.66211 6.39191 2.51855C6.40097 2.44125 6.40984 2.36393 6.41871 2.28661C6.43417 2.15601 6.45105 2.02574 6.46911 1.89548C6.47562 1.84433 6.47562 1.84433 6.48226 1.79215C6.50681 1.64342 6.53579 1.54148 6.6463 1.43532C6.79573 1.34763 6.91024 1.33247 7.07884 1.33485Z" fill="white"/>
</svg>
