<svg width="64" height="64" viewBox="0 0 64 64" fill="none" xmlns="http://www.w3.org/2000/svg">
<path d="M53.3334 19.3335H24C22.0551 19.3335 20.1898 20.1061 18.8146 21.4814C17.4393 22.8566 16.6667 24.7219 16.6667 26.6668V53.3335C16.6667 55.2784 17.4393 57.1437 18.8146 58.5189C20.1898 59.8942 22.0551 60.6668 24 60.6668H53.3334C55.2783 60.6668 57.1435 59.8942 58.5188 58.5189C59.8941 57.1437 60.6667 55.2784 60.6667 53.3335V26.6668C60.6667 24.7219 59.8941 22.8566 58.5188 21.4814C57.1435 20.1061 55.2783 19.3335 53.3334 19.3335ZM53.3334 23.3335C54.2174 23.3335 55.0653 23.6847 55.6904 24.3098C56.3155 24.9349 56.6667 25.7828 56.6667 26.6668V53.3335C56.6667 55.1735 55.1734 56.6668 53.3334 56.6668H24C23.116 56.6668 22.2681 56.3156 21.643 55.6905C21.0179 55.0654 20.6667 54.2175 20.6667 53.3335V26.6668C20.6667 25.7828 21.0179 24.9349 21.643 24.3098C22.2681 23.6847 23.116 23.3335 24 23.3335H53.3334Z" fill="#858585"/>
<path d="M38.2827 3.44538C40.1975 3.1082 42.1678 3.54521 43.7605 4.66033C45.3532 5.77546 46.4378 7.47743 46.776 9.39205L48.8214 20.9867C48.8726 21.2477 48.8713 21.5163 48.8175 21.7767C48.7637 22.0372 48.6585 22.2843 48.508 22.5036C48.3576 22.7229 48.1649 22.91 47.9412 23.0539C47.7176 23.1979 47.4675 23.2957 47.2056 23.3419C46.9436 23.388 46.6752 23.3814 46.4158 23.3224C46.1565 23.2635 45.9115 23.1535 45.6952 22.9987C45.4789 22.844 45.2956 22.6477 45.1561 22.4212C45.0166 22.1948 44.9236 21.9428 44.8827 21.68L42.8373 10.088C42.6839 9.21744 42.1908 8.44345 41.4667 7.93636C40.7425 7.42926 39.8466 7.23059 38.976 7.38405L10.088 12.48C9.21789 12.6342 8.44457 13.1275 7.93803 13.8515C7.43148 14.5756 7.23317 15.4712 7.38668 16.3414L12.0187 42.6027C12.1722 43.4733 12.6652 44.2473 13.3893 44.7544C14.1135 45.2615 15.0094 45.4602 15.88 45.3067L18.3227 44.8747C18.5837 44.8235 18.8522 44.8248 19.1127 44.8786C19.3731 44.9324 19.6202 45.0376 19.8396 45.188C20.0589 45.3385 20.246 45.5312 20.3899 45.7548C20.5338 45.9785 20.6317 46.2286 20.6778 46.4905C20.7239 46.7524 20.7173 47.0209 20.6584 47.2803C20.5995 47.5396 20.4895 47.7846 20.3347 48.0009C20.18 48.2172 19.9836 48.4005 19.7572 48.54C19.5308 48.6795 19.2788 48.7724 19.016 48.8134L16.576 49.2454C14.6608 49.5833 12.6898 49.1467 11.0965 48.0315C9.50322 46.9163 8.41817 45.2139 8.08002 43.2987L3.44535 17.032C3.10739 15.1168 3.54403 13.1458 4.65923 11.5525C5.77443 9.95925 7.47684 8.8742 9.39202 8.53605L38.2827 3.44271V3.44538Z" fill="#858585"/>
<path d="M33.2534 34.5866C33.6284 34.2121 34.1367 34.0017 34.6667 34.0017C35.1967 34.0017 35.705 34.2121 36.08 34.5866L44.08 42.5866C44.2765 42.7697 44.4341 42.9905 44.5434 43.2358C44.6528 43.4812 44.7115 43.746 44.7163 44.0146C44.721 44.2831 44.6716 44.5498 44.571 44.7989C44.4704 45.0479 44.3207 45.2741 44.1308 45.464C43.9409 45.654 43.7147 45.8037 43.4656 45.9043C43.2166 46.0049 42.9498 46.0543 42.6813 46.0495C42.4128 46.0448 42.1479 45.986 41.9026 45.8767C41.6573 45.7674 41.4365 45.6098 41.2534 45.4133L33.2534 37.4133C32.8788 37.0383 32.6685 36.53 32.6685 35.9999C32.6685 35.4699 32.8788 34.9616 33.2534 34.5866Z" fill="#858585"/>
<path d="M41.2534 34.5868C41.4365 34.3903 41.6573 34.2326 41.9026 34.1233C42.1479 34.014 42.4128 33.9552 42.6813 33.9505C42.9499 33.9458 43.2166 33.9952 43.4656 34.0958C43.7147 34.1963 43.9409 34.3461 44.1308 34.536C44.3207 34.7259 44.4704 34.9521 44.571 35.2012C44.6716 35.4502 44.721 35.7169 44.7163 35.9855C44.7115 36.254 44.6528 36.5189 44.5435 36.7642C44.4341 37.0095 44.2765 37.2303 44.08 37.4134L36.08 45.4134C35.8969 45.6099 35.6761 45.7675 35.4308 45.8768C35.1855 45.9861 34.9206 46.0449 34.6521 46.0497C34.3836 46.0544 34.1168 46.005 33.8678 45.9044C33.6187 45.8038 33.3925 45.6541 33.2026 45.4642C33.0127 45.2743 32.863 45.048 32.7624 44.799C32.6618 44.55 32.6124 44.2832 32.6171 44.0147C32.6219 43.7462 32.6806 43.4813 32.79 43.236C32.8993 42.9906 33.0569 42.7699 33.2534 42.5868L41.2534 34.5868Z" fill="#858585"/>
</svg>
