<svg width="25" height="24" viewBox="0 0 25 24" fill="none" xmlns="http://www.w3.org/2000/svg">
<path opacity="0.991" fill-rule="evenodd" clip-rule="evenodd" d="M8.93252 2.0106C12.3632 1.98218 15.789 2.01105 19.2101 2.09721C19.4849 2.35651 19.5715 2.67407 19.4699 3.04991C18.3707 5.56584 17.2641 8.07749 16.1499 10.5849C17.4394 10.6041 18.729 10.6234 20.0184 10.6426C20.3155 10.9081 20.3829 11.2257 20.2205 11.5953C16.4174 15.0714 12.5969 18.5261 8.7593 21.9595C8.20471 22.0969 7.91602 21.8851 7.89321 21.3244C8.23093 19.1922 8.59659 17.0655 8.99026 14.9442C7.79742 14.8961 6.60418 14.8672 5.41043 14.8576C5.10302 14.7144 4.96832 14.4738 5.00625 14.1358C5.89289 10.4931 6.80708 6.85556 7.74886 3.22313C7.96163 2.6351 8.35622 2.23093 8.93252 2.0106Z" fill="white"/>
</svg>
