<svg width="25" height="25" viewBox="0 0 25 25" fill="none" xmlns="http://www.w3.org/2000/svg">
<path d="M24.6006 12.0174C24.6006 18.0799 20.108 23.0919 14.2717 23.9053C13.726 23.981 13.1677 24.0205 12.601 24.0205C11.9468 24.0205 11.3044 23.9683 10.6789 23.8674C4.96453 22.9473 0.600586 17.9916 0.600586 12.0174C0.600586 5.38796 5.97353 0.0134277 12.6002 0.0134277C19.2268 0.0134277 24.6006 5.38796 24.6006 12.0174Z" fill="#1877F2"/>
<path d="M14.2716 9.65139V12.2663H17.5055L16.9934 15.7888H14.2716V23.9044C13.7259 23.9801 13.1676 24.0196 12.6009 24.0196C11.9467 24.0196 11.3043 23.9675 10.6787 23.8666V15.7888H7.69629V12.2663H10.6787V9.06684C10.6787 7.08188 12.2873 5.47205 14.2725 5.47205V5.47373C14.2784 5.47373 14.2834 5.47205 14.2893 5.47205H17.5063V8.51845H15.4042C14.7795 8.51845 14.2725 9.02563 14.2725 9.65055L14.2716 9.65139Z" fill="white"/>
</svg>
