<svg width="25" height="24" viewBox="0 0 25 24" fill="none" xmlns="http://www.w3.org/2000/svg">
<path opacity="0.991" fill-rule="evenodd" clip-rule="evenodd" d="M5.2862 2.00413C5.48871 1.99306 5.69001 2.00426 5.8901 2.03768C6.74114 2.42934 7.63578 2.65305 8.57411 2.70868C9.75031 2.85295 10.9246 2.84174 12.0969 2.67513C14.7987 2.77263 16.8564 3.95808 18.2701 6.23144C19.1788 7.90398 19.4248 9.67093 19.0082 11.5324C18.7511 12.5833 18.2814 13.5227 17.5991 14.3506C17.1003 14.8833 16.5747 15.3754 16.0222 15.8268C16.7126 17.3501 17.1935 18.9381 17.4649 20.5909C17.5663 21.2491 17.3091 21.7076 16.6932 21.9664C13.4948 22.0112 10.2964 22.0112 7.09791 21.9664C6.57996 21.7498 6.31156 21.3584 6.29271 20.7922C6.56668 18.975 7.10348 17.2416 7.90311 15.5919C5.20239 13.3711 4.38599 10.5864 5.45395 7.23794C5.60869 6.83896 5.79878 6.45877 6.0243 6.09724C5.25976 4.96284 4.93547 3.71028 5.05135 2.33963C5.11825 2.21731 5.19656 2.10545 5.2862 2.00413Z" fill="white"/>
</svg>
