<svg width="24" height="25" viewBox="0 0 24 25" fill="none" xmlns="http://www.w3.org/2000/svg">
<path opacity="0.984" fill-rule="evenodd" clip-rule="evenodd" d="M17.8428 2.551C18.2241 2.51073 18.587 2.5674 18.9313 2.72108C20.0311 3.82092 21.1309 4.9207 22.2308 6.02054C22.43 6.43974 22.4527 6.87058 22.2988 7.31312C18.8746 11.9618 15.4504 16.6106 12.0262 21.2593C11.5921 21.6163 11.1045 21.6957 10.5636 21.4974C10.4554 21.4263 10.3534 21.3469 10.2574 21.2593C7.62344 17.7863 5.01557 14.2941 2.43396 10.7827C2.35974 10.4019 2.40512 10.0391 2.57002 9.69417C3.44305 8.82114 4.31615 7.94804 5.18919 7.07501C5.70492 6.74738 6.20379 6.7701 6.68585 7.14304C7.91039 8.59433 9.13494 10.0457 10.3595 11.497C10.4502 11.5424 10.5409 11.5424 10.6316 11.497C12.8054 8.72522 14.971 5.94734 17.1285 3.16327C17.3396 2.91741 17.5777 2.71332 17.8428 2.551Z" fill="#00FFBB"/>
</svg>
