<svg width="25" height="24" viewBox="0 0 25 24" fill="none" xmlns="http://www.w3.org/2000/svg">
<path opacity="0.995" fill-rule="evenodd" clip-rule="evenodd" d="M12.1151 2.02618C12.7585 1.94317 13.3618 2.05758 13.925 2.36943C16.3382 3.78406 18.7513 5.19863 21.1645 6.61326C21.6644 6.88449 22.0076 7.29015 22.1942 7.83024C22.2974 12.3418 22.3182 16.8561 22.2566 21.3731C22.1422 21.6539 21.9446 21.8516 21.6637 21.966C19.8955 22.0076 18.1272 22.0076 16.3589 21.966C16.0381 21.8532 15.8197 21.6348 15.7036 21.3107C15.6829 19.5216 15.662 17.7325 15.6412 15.9435C15.5666 15.3873 15.265 15.0232 14.7363 14.8513C13.3425 14.8097 11.9487 14.8097 10.5549 14.8513C10.0262 15.0232 9.72451 15.3873 9.64993 15.9435C9.62915 17.7325 9.6083 19.5216 9.58752 21.3107C9.48342 21.5504 9.3274 21.7481 9.11945 21.9035C7.2926 22.006 5.46195 22.0269 3.62743 21.966C3.34659 21.8516 3.14894 21.6539 3.03454 21.3731C2.97294 16.8561 2.99372 12.3418 3.09695 7.83024C3.30203 7.30451 3.64528 6.89885 4.1267 6.61326C6.53989 5.19863 8.953 3.78406 11.3662 2.36943C11.6143 2.23548 11.8639 2.12106 12.1151 2.02618Z" fill="white"/>
</svg>
