<svg width="24" height="24" viewBox="0 0 24 24" fill="none" xmlns="http://www.w3.org/2000/svg">
<path opacity="0.987" fill-rule="evenodd" clip-rule="evenodd" d="M10.8777 2.02597C15.1506 1.76814 18.4223 3.42997 20.693 7.01153C21.9436 9.288 22.2967 11.6977 21.7524 14.2406C20.6111 18.4563 17.9002 21.0011 13.6197 21.8747C9.30268 22.3797 5.92708 20.8528 3.49282 17.2943C2.00143 14.7737 1.62751 12.0939 2.37107 9.25504C3.74814 5.12525 6.58368 2.7156 10.8777 2.02597ZM11.8125 5.14195C13.2792 5.20657 14.0893 5.96482 14.2429 7.41661C14.1154 8.78022 13.3675 9.53847 11.9994 9.69127C10.6313 9.53847 9.8835 8.78022 9.75593 7.41661C9.86593 6.13308 10.5514 5.3749 11.8125 5.14195ZM10.5661 11.1246C11.5011 11.1142 12.4359 11.1246 13.3705 11.1558C13.5626 11.2048 13.6976 11.319 13.7755 11.4985C13.9538 13.9064 14.0785 16.3162 14.1495 18.7276C14.0767 18.9665 13.9209 19.1223 13.6821 19.195C12.5396 19.2366 11.397 19.2366 10.2545 19.195C9.93024 19.0247 9.7641 18.7546 9.75593 18.3848C9.89715 16.0672 10.0529 13.7511 10.2233 11.4362C10.3311 11.3177 10.4454 11.2138 10.5661 11.1246Z" fill="white"/>
</svg>
