<svg width="25" height="25" viewBox="0 0 25 25" fill="none" xmlns="http://www.w3.org/2000/svg">
<path d="M12.4277 0.0134277H12.3731C5.76074 0.0134277 0.400391 5.37378 0.400391 11.9861V12.0408C0.400391 18.6531 5.76074 24.0134 12.3731 24.0134H12.4277C19.04 24.0134 24.4004 18.6531 24.4004 12.0408V11.9861C24.4004 5.37378 19.04 0.0134277 12.4277 0.0134277Z" fill="url(#paint0_linear_19450_4308)"/>
<path d="M16.1138 4.89612H8.6875C6.63586 4.89612 4.9668 6.56518 4.9668 8.61682V15.4108C4.9668 17.4624 6.63586 19.1315 8.6875 19.1315H16.1138C18.1654 19.1315 19.8345 17.4624 19.8345 15.4108V8.61682C19.8345 6.56518 18.1654 4.89612 16.1138 4.89612ZM6.27934 8.61682C6.27934 7.28914 7.35982 6.20866 8.6875 6.20866H16.1138C17.4414 6.20866 18.5219 7.28914 18.5219 8.61682V15.4108C18.5219 16.7385 17.4414 17.8189 16.1138 17.8189H8.6875C7.35982 17.8189 6.27934 16.7385 6.27934 15.4108V8.61682Z" fill="white"/>
<path d="M12.4003 15.4739C14.3082 15.4739 15.8612 13.9217 15.8612 12.013C15.8612 10.1043 14.309 8.55212 12.4003 8.55212C10.4916 8.55212 8.93945 10.1043 8.93945 12.013C8.93945 13.9217 10.4916 15.4739 12.4003 15.4739ZM12.4003 9.86551C13.5851 9.86551 14.5487 10.8291 14.5487 12.0138C14.5487 13.1986 13.5851 14.1622 12.4003 14.1622C11.2156 14.1622 10.252 13.1986 10.252 12.0138C10.252 10.8291 11.2156 9.86551 12.4003 9.86551Z" fill="white"/>
<path d="M16.1815 9.11119C16.6953 9.11119 17.114 8.6933 17.114 8.1787C17.114 7.66411 16.6961 7.24622 16.1815 7.24622C15.6669 7.24622 15.249 7.66411 15.249 8.1787C15.249 8.6933 15.6669 9.11119 16.1815 9.11119Z" fill="white"/>
<defs>
<linearGradient id="paint0_linear_19450_4308" x1="3.90668" y1="20.5071" x2="20.8941" y2="3.52056" gradientUnits="userSpaceOnUse">
<stop stop-color="#FAAD4F"/>
<stop offset="0.35" stop-color="#DD2A7B"/>
<stop offset="0.62" stop-color="#9537B0"/>
<stop offset="1" stop-color="#515BD4"/>
</linearGradient>
</defs>
</svg>
