<svg width="25" height="24" viewBox="0 0 25 24" fill="none" xmlns="http://www.w3.org/2000/svg">
<mask id="mask0_16665_1287" style="mask-type:alpha" maskUnits="userSpaceOnUse" x="0" y="0" width="25" height="24">
<rect x="0.200195" width="24" height="24" fill="#D9D9D9"/>
</mask>
<g mask="url(#mask0_16665_1287)">
<path d="M12.2002 22C10.8335 22 9.54186 21.7375 8.3252 21.2125C7.10853 20.6875 6.04603 19.9708 5.1377 19.0625C4.22936 18.1542 3.5127 17.0917 2.9877 15.875C2.4627 14.6583 2.2002 13.3667 2.2002 12C2.2002 10.6167 2.4627 9.32083 2.9877 8.1125C3.5127 6.90417 4.22936 5.84583 5.1377 4.9375C6.04603 4.02917 7.10853 3.3125 8.3252 2.7875C9.54186 2.2625 10.8335 2 12.2002 2C12.4835 2 12.721 2.09583 12.9127 2.2875C13.1044 2.47917 13.2002 2.71667 13.2002 3C13.2002 3.28333 13.1044 3.52083 12.9127 3.7125C12.721 3.90417 12.4835 4 12.2002 4C9.98353 4 8.09603 4.77917 6.5377 6.3375C4.97936 7.89583 4.2002 9.78333 4.2002 12C4.2002 14.2167 4.97936 16.1042 6.5377 17.6625C8.09603 19.2208 9.98353 20 12.2002 20C14.4169 20 16.3044 19.2208 17.8627 17.6625C19.421 16.1042 20.2002 14.2167 20.2002 12C20.2002 11.7167 20.296 11.4792 20.4877 11.2875C20.6794 11.0958 20.9169 11 21.2002 11C21.4835 11 21.721 11.0958 21.9127 11.2875C22.1044 11.4792 22.2002 11.7167 22.2002 12C22.2002 13.3667 21.9377 14.6583 21.4127 15.875C20.8877 17.0917 20.171 18.1542 19.2627 19.0625C18.3544 19.9708 17.296 20.6875 16.0877 21.2125C14.8794 21.7375 13.5835 22 12.2002 22Z" fill="white"/>
</g>
</svg>
