<svg width="24" height="24" viewBox="0 0 24 24" fill="none" xmlns="http://www.w3.org/2000/svg">
<path opacity="0.984" fill-rule="evenodd" clip-rule="evenodd" d="M11.1434 2.02464C13.787 1.81937 15.6868 2.89683 16.8426 5.25703C16.9911 5.62434 17.1045 6.00236 17.1829 6.39121C17.254 7.46652 17.2918 8.54399 17.2963 9.62361C19.1002 11.6791 19.6673 14.0419 18.9975 16.7122C18.1941 19.2546 16.5212 20.9275 13.9788 21.7309C11.0615 22.4456 8.5569 21.7367 6.46491 19.6043C4.6521 17.4211 4.16066 14.9638 4.99048 12.2322C5.34741 11.253 5.87667 10.3834 6.57833 9.62361C6.59721 8.65956 6.61615 7.69551 6.63504 6.73146C7.09171 4.15082 8.59449 2.58187 11.1434 2.02464ZM11.4836 4.80336C13.0764 4.70634 14.0878 5.42466 14.5175 6.9583C14.5458 7.22227 14.5553 7.48688 14.5459 7.75222C13.2485 7.31891 11.9253 7.21496 10.5763 7.44032C10.1548 7.5268 9.73899 7.63075 9.3287 7.75222C9.2873 6.20673 10.0056 5.2238 11.4836 4.80336ZM11.4836 11.7218C12.7404 11.5984 13.6194 12.1088 14.1206 13.253C14.4158 14.3321 14.1228 15.2111 13.2416 15.8899C13.4626 16.4866 13.6894 17.0821 13.9221 17.6762C13.786 17.8863 13.597 18.0281 13.355 18.1016C12.2734 18.4105 11.2148 18.3537 10.1793 17.9314C10.0822 17.8533 10.0065 17.7588 9.9525 17.6479C10.1904 17.0663 10.4173 16.4804 10.633 15.8899C9.75181 15.2111 9.45885 14.3321 9.75402 13.253C10.0928 12.4698 10.6694 11.9594 11.4836 11.7218Z" fill="white"/>
</svg>
