<svg width="276" height="130" viewBox="0 0 276 130" fill="none" xmlns="http://www.w3.org/2000/svg">
<path d="M0 59.5834V0H43.256L68.4048 31.4241H71.758L96.7391 0H140.833V59.5834H109.984V8.73345L114.846 8.89669L83.3264 47.5851H54.9921L23.3046 8.89669L31.2103 8.73345V59.5834H0Z" fill="#68FFD1"/>
<path d="M140.833 70.4166L140.833 130L97.5774 130L72.4286 98.5759L69.0754 98.5759L44.0943 130L0 130L5.20894e-06 70.4166L30.8492 70.4166L30.8492 121.267L25.9871 121.103L57.507 82.4149L85.8413 82.4149L117.529 121.103L109.623 121.267L109.623 70.4166L140.833 70.4166Z" fill="#A768FF"/>
<path d="M262.919 90.6788V70.908H267.253V90.6788H262.919ZM266.711 90.6788V86.9955H275.351V90.6788H266.711ZM266.711 82.4726V78.7892H274.728V82.4726H266.711ZM266.711 74.5913V70.908H275.161V74.5913H266.711Z" fill="white"/>
<path d="M250.106 90.6788V74.2392H254.547V90.6788H250.106ZM244.554 74.7809V70.908H260.127V74.7809H244.554Z" fill="white"/>
<path d="M237.238 90.6788V70.908H241.68V90.6788H237.238Z" fill="white"/>
<path d="M213.461 90.6788V70.908H220.746L228.194 87.0767H229.115L228.573 87.5642V70.908H232.744V90.6788H225.405L217.957 74.5101H217.036L217.578 74.0226V90.6788H213.461Z" fill="white"/>
<path d="M204.522 90.6788V70.908H208.963V90.6788H204.522Z" fill="white"/>
<path d="M189.313 90.6788V70.908H193.755V90.6788H189.313ZM193.213 82.7163V79.033H200.851V82.7163H193.213ZM193.213 74.5913V70.908H201.176V74.5913H193.213Z" fill="white"/>
<path d="M165.589 90.6788V70.908H172.874L180.322 87.0767H181.243L180.701 87.5642V70.908H184.872V90.6788H177.533L170.085 74.5101H169.164L169.706 74.0226V90.6788H165.589Z" fill="white"/>
<path d="M156.649 90.6788V70.908H161.091V90.6788H156.649Z" fill="white"/>
<path d="M214.783 59.5833V39.8125H219.117V59.5833H214.783ZM218.575 59.5833V55.9H227.215V59.5833H218.575ZM218.575 51.3771V47.6937H226.592V51.3771H218.575ZM218.575 43.4958V39.8125H227.025V43.4958H218.575Z" fill="white"/>
<path d="M201.595 60.0979C199.825 60.0979 198.281 59.809 196.963 59.2312C195.645 58.6354 194.553 57.841 193.686 56.8479C192.838 55.8549 192.206 54.7535 191.79 53.5437C191.375 52.334 191.167 51.1243 191.167 49.9146V49.3187C191.167 48.0729 191.375 46.8542 191.79 45.6625C192.206 44.4708 192.829 43.3875 193.659 42.4125C194.508 41.4375 195.555 40.6611 196.801 40.0833C198.065 39.5055 199.518 39.2166 201.161 39.2166C202.949 39.2166 204.529 39.5507 205.901 40.2187C207.273 40.8687 208.374 41.7805 209.205 42.9541C210.035 44.1097 210.514 45.4548 210.64 46.9896H206.199C206.09 46.2673 205.801 45.6354 205.332 45.0937C204.881 44.5521 204.294 44.1278 203.572 43.8208C202.867 43.5139 202.064 43.3604 201.161 43.3604C200.295 43.3604 199.518 43.5139 198.832 43.8208C198.164 44.1278 197.586 44.5611 197.099 45.1208C196.629 45.6805 196.268 46.3486 196.015 47.125C195.781 47.8833 195.663 48.7229 195.663 49.6437C195.663 50.6007 195.79 51.4764 196.042 52.2708C196.313 53.0472 196.701 53.7243 197.207 54.3021C197.713 54.8618 198.335 55.2951 199.076 55.6021C199.834 55.909 200.674 56.0625 201.595 56.0625C202.822 56.0625 203.888 55.8097 204.79 55.3042C205.693 54.7986 206.343 54.1305 206.74 53.3L206.199 56.3333V51.6208H210.288V55.8458C209.44 57.218 208.266 58.2743 206.767 59.0146C205.287 59.7368 203.563 60.0979 201.595 60.0979ZM201.026 52.4875V49.2917H211.913V52.4875H201.026Z" fill="white"/>
<path d="M172.677 59.5833V39.65H177.119V59.5833H172.677ZM184.675 59.5833L178.879 51.0792H183.754L189.821 59.5833H184.675ZM175.927 53.2458V49.7521H180.802C181.452 49.7521 182.012 49.6257 182.481 49.3729C182.969 49.1021 183.339 48.7319 183.592 48.2625C183.863 47.775 183.998 47.2153 183.998 46.5833C183.998 45.9514 183.863 45.4007 183.592 44.9313C183.339 44.4437 182.969 44.0736 182.481 43.8208C182.012 43.55 181.452 43.4146 180.802 43.4146H175.927V39.65H180.45C182.093 39.65 183.52 39.9028 184.729 40.4083C185.939 40.8958 186.869 41.6271 187.519 42.6021C188.169 43.5771 188.494 44.8049 188.494 46.2854V46.7188C188.494 48.1813 188.16 49.4 187.492 50.375C186.842 51.3319 185.912 52.0542 184.702 52.5417C183.511 53.0111 182.093 53.2458 180.45 53.2458H175.927Z" fill="white"/>
<path d="M156.596 59.5833V39.8125H160.93V59.5833H156.596ZM160.388 59.5833V55.9H169.028V59.5833H160.388ZM160.388 51.3771V47.6937H168.405V51.3771H160.388ZM160.388 43.4958V39.8125H168.838V43.4958H160.388Z" fill="white"/>
</svg>
