<svg width="25" height="23" viewBox="0 0 25 23" fill="none" xmlns="http://www.w3.org/2000/svg">
<path d="M2.60059 10.4615V2H8.74344L12.3149 6.46259H12.7911L16.3387 2H22.6006V10.4615H18.2196V3.24025L18.9101 3.26343L14.4339 8.75764H10.4101L5.91011 3.26343L7.03282 3.24025V10.4615H2.60059Z" fill="#68FFD1"/>
<path d="M22.6006 12L22.6006 20.4615L16.4577 20.4615L12.8863 15.999L12.4101 15.999L8.86249 20.4615L2.60059 20.4615L2.60059 12L6.98154 12L6.98154 19.2213L6.29106 19.1981L10.7673 13.7039L14.7911 13.7039L19.2911 19.1981L18.1684 19.2213L18.1684 12L22.6006 12Z" fill="#A768FF"/>
</svg>
