<svg width="24" height="23" viewBox="0 0 24 23" fill="none" xmlns="http://www.w3.org/2000/svg">
<path d="M2 10.4615V2H8.14286L11.7143 6.46259H12.1905L15.7381 2H22V10.4615H17.619V3.24025L18.3095 3.26343L13.8333 8.75764H9.80952L5.30952 3.26343L6.43223 3.24025V10.4615H2Z" fill="white"/>
<path d="M22 12L22 20.4615L15.8571 20.4615L12.2857 15.999L11.8095 15.999L8.26191 20.4615L2 20.4615L2 12L6.38095 12L6.38095 19.2213L5.69048 19.1981L10.1667 13.7039L14.1905 13.7039L18.6905 19.1981L17.5678 19.2213L17.5678 12L22 12Z" fill="white"/>
</svg>
