<svg width="25" height="24" viewBox="0 0 25 24" fill="none" xmlns="http://www.w3.org/2000/svg">
<path opacity="0.975" fill-rule="evenodd" clip-rule="evenodd" d="M4.09159 4.02375C4.89939 3.90857 5.48167 4.21237 5.83843 4.93514C6.9077 4.50562 8.01322 4.21024 9.1549 4.04906C9.76467 4.00526 10.3723 4.02214 10.9777 4.0997C11.3666 4.17183 11.7126 4.33216 12.0157 4.58071C12.3188 4.33216 12.6648 4.17183 13.0536 4.0997C14.2021 3.94278 15.3329 4.02717 16.4461 4.35286C17.0406 4.51089 17.6228 4.70502 18.1929 4.93514C18.7031 4.00567 19.4373 3.77782 20.3955 4.2516C21.003 4.81403 21.1127 5.46386 20.7246 6.20097C20.3715 6.67014 19.9074 6.85581 19.3322 6.75794C19.1982 6.78872 19.0632 6.81404 18.9271 6.83389C19.9546 8.66103 20.9757 10.4923 21.9904 12.3276C22.1094 14.4595 21.1221 15.7507 19.0284 16.201C17.5213 16.3628 16.3314 15.8312 15.4587 14.6061C15.0343 13.9017 14.8824 13.1422 15.003 12.3276C15.9502 10.4924 16.9037 8.66113 17.8638 6.83389C16.2774 6.80857 14.6909 6.80011 13.1043 6.80857C13.3411 10.5388 13.5859 14.2688 13.8385 17.9985C14.3743 18.0896 14.9228 18.1318 15.484 18.1251C15.7494 18.1878 15.9604 18.3313 16.117 18.5555C16.4068 19.1013 16.6684 19.6582 16.9018 20.2263C16.9065 20.3485 16.8559 20.4413 16.7499 20.5048C13.5938 20.5386 10.4376 20.5386 7.28147 20.5048C7.17545 20.4413 7.12481 20.3485 7.12957 20.2263C7.36294 19.6582 7.62456 19.1013 7.91439 18.5555C8.06573 18.3534 8.25981 18.2099 8.49667 18.1251C9.0747 18.1319 9.64012 18.0897 10.1929 17.9985C10.4455 14.2688 10.6902 10.5388 10.9271 6.80857C9.27272 6.79171 7.61869 6.80857 5.96501 6.8592C6.97327 8.6902 7.99439 10.513 9.02832 12.3276C9.18199 14.1301 8.42249 15.3622 6.74983 16.0238C5.04977 16.5231 3.64894 16.0843 2.54728 14.7073C2.08263 13.9792 1.91385 13.186 2.04095 12.3276C2.98808 10.4924 3.94167 8.66113 4.90172 6.83389C4.76405 6.74356 4.6206 6.73515 4.47134 6.80857C3.35452 6.63459 2.9157 5.99322 3.15487 4.88451C3.34895 4.46233 3.66119 4.17541 4.09159 4.02375ZM5.35741 7.87187C5.42754 7.92625 5.48658 7.99374 5.53463 8.0744C6.31944 9.50899 7.10426 10.9436 7.88907 12.3782C6.28598 12.4373 4.68258 12.4457 3.07893 12.4035C3.87213 10.91 4.63164 9.39937 5.35741 7.87187ZM18.3701 7.87187C19.2086 9.36271 20.0356 10.8648 20.8511 12.3782C19.2481 12.4373 17.6447 12.4457 16.041 12.4035C16.8245 10.8956 17.6009 9.38504 18.3701 7.87187Z" fill="white"/>
</svg>
