<svg width="25" height="24" viewBox="0 0 25 24" fill="none" xmlns="http://www.w3.org/2000/svg">
<path opacity="0.985" fill-rule="evenodd" clip-rule="evenodd" d="M8.00078 4.03738C9.56628 3.86183 10.9207 4.30461 12.0639 5.36571C12.689 5.40046 13.3141 5.40046 13.9392 5.36571C15.0819 4.29612 16.4363 3.86204 18.0023 4.06343C20.2007 4.48042 21.5637 5.774 22.0915 7.94424C22.3332 10.8137 22.6284 13.6788 22.9771 16.5393C23.1286 17.9496 22.5295 18.8612 21.1799 19.2741C20.1414 19.4434 19.308 19.1135 18.6795 18.2844C17.6049 17.3661 16.5457 16.4285 15.5019 15.4715C13.835 15.4367 12.1681 15.4367 10.5012 15.4715C9.45746 16.4285 8.39824 17.3661 7.32359 18.2844C6.57655 19.2278 5.6215 19.523 4.45856 19.1699C3.51421 18.7464 3.02802 18.0172 3 16.9821C3.25768 14.5067 3.52682 12.0324 3.80742 9.55907C3.67317 7.73712 4.28958 6.23517 5.65666 5.05316C6.36037 4.52662 7.14174 4.18803 8.00078 4.03738ZM7.94869 6.27731C8.43517 6.26866 8.92139 6.27731 9.40725 6.30336C9.61014 6.35196 9.72303 6.48219 9.74584 6.69404C9.78929 7.21532 9.83268 7.73624 9.87607 8.25679C10.4494 8.30893 11.0224 8.36967 11.5951 8.43911C11.6696 8.46333 11.7304 8.50677 11.7774 8.56934C11.8617 9.11984 11.8791 9.6755 11.8295 10.2363C11.7656 10.3522 11.67 10.4304 11.543 10.4707C11.0056 10.5314 10.4673 10.5835 9.92816 10.6269C9.83455 11.15 9.77382 11.6796 9.74584 12.2157C9.7236 12.4255 9.61072 12.5557 9.40725 12.6064C8.93842 12.6412 8.4696 12.6412 8.00078 12.6064C7.81846 12.563 7.70558 12.4501 7.66218 12.2678C7.61989 11.7161 7.55915 11.1692 7.47986 10.6269C6.92332 10.5842 6.36771 10.5321 5.81294 10.4707C5.70006 10.4273 5.62192 10.3491 5.57853 10.2363C5.52894 9.6755 5.54628 9.11984 5.63062 8.56934C5.76991 8.44583 5.93488 8.38509 6.12549 8.38702C6.59592 8.35217 7.06475 8.30877 7.53196 8.25679C7.55264 7.66138 7.61337 7.07103 7.71428 6.48568C7.78705 6.40389 7.86518 6.3344 7.94869 6.27731ZM15.8666 6.27731C16.6935 6.28007 17.2058 6.67946 17.4033 7.47542C17.3598 8.56058 16.7955 9.05545 15.7103 8.96002C14.854 8.61059 14.5502 7.99414 14.7987 7.11078C15.0291 6.66242 15.3851 6.38462 15.8666 6.27731ZM18.7837 9.35071C19.9541 9.29695 20.5011 9.85256 20.4246 11.0176C20.1251 11.8489 19.5434 12.1702 18.6795 11.9813C17.7717 11.5282 17.5373 10.8423 17.9763 9.92371C18.1913 9.64773 18.4604 9.45671 18.7837 9.35071Z" fill="#FEFFFE"/>
</svg>
