<svg width="25" height="24" viewBox="0 0 25 24" fill="none" xmlns="http://www.w3.org/2000/svg">
<path fill-rule="evenodd" clip-rule="evenodd" d="M9.89298 2.00419C11.2979 1.99302 12.7025 2.00419 14.107 2.03763C14.7216 2.25148 15.0226 2.68626 15.01 3.34198C15.1223 5.10492 15.245 6.86639 15.3779 8.62625C17.1378 8.75916 18.8993 8.88184 20.6622 8.99414C21.3179 8.98157 21.7527 9.28257 21.9665 9.89715C22.0112 11.3018 22.0112 12.7065 21.9665 14.1112C21.7527 14.7258 21.3179 15.0268 20.6622 15.0142C18.8993 15.1265 17.1378 15.2492 15.3779 15.3821C15.245 17.142 15.1223 18.9034 15.01 20.6664C15.0226 21.3221 14.7216 21.7569 14.107 21.9707C12.7023 22.0153 11.2977 22.0153 9.89298 21.9707C9.2784 21.7569 8.9774 21.3221 8.98997 20.6664C8.87766 18.9034 8.75499 17.142 8.62208 15.3821C6.86222 15.2492 5.10075 15.1265 3.33781 15.0142C2.68209 15.0268 2.24731 14.7258 2.03346 14.1112C1.98885 12.7065 1.98885 11.3018 2.03346 9.89715C2.24731 9.28257 2.68209 8.98157 3.33781 8.99414C5.10075 8.88184 6.86222 8.75916 8.62208 8.62625C8.74777 6.70753 8.89271 4.79007 9.05686 2.87375C9.21425 2.46004 9.49298 2.17021 9.89298 2.00419Z" fill="#68FFD1"/>
</svg>
