<svg width="17" height="20" viewBox="0 0 17 20" fill="none" xmlns="http://www.w3.org/2000/svg">
<path opacity="0.983" fill-rule="evenodd" clip-rule="evenodd" d="M7.89786 0C8.59608 0.104539 9.25281 0.3391 9.86817 0.703679C14.7112 3.79317 16.9911 8.23108 16.7079 14.0173C16.2423 16.5157 14.8443 18.2703 12.514 19.2808C10.4993 20.0209 8.43519 20.1898 6.32162 19.7875C2.82816 19.0338 0.867262 16.8853 0.438862 13.3418C0.209688 10.4275 0.979063 7.81917 2.74693 5.51685C3.2542 4.97163 3.82654 4.51188 4.46391 4.13763C4.62418 4.08449 4.76491 4.11264 4.88612 4.22208C4.958 4.89761 5.10808 5.55434 5.33647 6.19238C6.06576 7.67399 7.18225 8.0587 8.68598 7.34641C9.02285 7.05745 9.21988 6.69154 9.27707 6.24867C9.31777 5.79595 9.29903 5.3456 9.22078 4.89761C8.85565 3.31444 8.37715 1.76635 7.78527 0.253325C7.8159 0.164098 7.85345 0.0796565 7.89786 0ZM6.4905 10.6396C6.54443 10.6651 6.59138 10.7026 6.63124 10.7522C6.65387 11.4069 6.76646 12.0449 6.96901 12.6662C7.45635 13.6231 8.19752 13.8764 9.19263 13.4262C9.76852 13.0562 10.1532 12.5402 10.3467 11.8781C10.4558 11.7386 10.5778 11.7292 10.7126 11.85C11.6289 12.7495 12.0793 13.8472 12.0636 15.1432C11.9306 16.9561 10.9923 18.1289 9.24893 18.6616C7.32642 18.9809 5.89091 18.296 4.94241 16.6068C4.5698 15.5899 4.53225 14.5579 4.82982 13.5106C5.12604 12.3913 5.67958 11.4343 6.4905 10.6396Z" fill="white"/>
</svg>
