<svg width="24" height="24" viewBox="0 0 24 24" fill="none" xmlns="http://www.w3.org/2000/svg">
<path opacity="0.983" fill-rule="evenodd" clip-rule="evenodd" d="M11.7644 2.03068C12.1472 1.93254 12.3924 2.06985 12.5 2.44261C13.2749 4.58983 14.089 6.71817 14.9422 8.82755C17.0803 9.63182 19.2185 10.436 21.3566 11.2403C21.7574 11.554 21.7377 11.8482 21.2977 12.123C19.1416 12.8972 17.0035 13.7112 14.8834 14.5652C14.053 16.7165 13.2389 18.8742 12.4412 21.0384C12.2639 21.3347 12.0187 21.4034 11.7056 21.2443C10.8284 19.0286 9.97507 16.8022 9.14574 14.5652C6.97074 13.7092 4.78356 12.8755 2.58426 12.0642C2.26986 11.7688 2.28947 11.4942 2.6431 11.2403C4.81475 10.4338 6.98227 9.61981 9.14574 8.79813C9.95001 6.64037 10.7542 4.48267 11.5585 2.32492C11.6172 2.21763 11.6858 2.11956 11.7644 2.03068Z" fill="white"/>
<path opacity="0.947" fill-rule="evenodd" clip-rule="evenodd" d="M19.0606 2.26603C19.1774 2.25915 19.2754 2.29839 19.3548 2.38372C19.5874 3.02286 19.8424 3.65059 20.1199 4.26684C20.7279 4.50223 21.3361 4.73762 21.9441 4.97301C22.0188 5.10218 22.0188 5.22964 21.9441 5.35551C21.2941 5.59814 20.6566 5.86296 20.0316 6.14995C19.8158 6.73843 19.6001 7.3269 19.3843 7.91538C19.1278 8.1071 18.9512 8.04825 18.8546 7.73883C18.665 7.18314 18.4591 6.63391 18.2367 6.09111C17.6011 5.83024 16.9636 5.57525 16.3242 5.32609C16.2715 5.1775 16.3009 5.04998 16.4125 4.94358C17.0343 4.72661 17.6424 4.48145 18.2367 4.20799C18.4681 3.62181 18.6937 3.03334 18.9135 2.44257C18.9546 2.37251 19.0036 2.31366 19.0606 2.26603Z" fill="#68FFD1"/>
<path opacity="0.946" fill-rule="evenodd" clip-rule="evenodd" d="M4.70186 15.9186C4.85157 15.8953 4.97909 15.9346 5.08437 16.0363C5.31282 16.673 5.55804 17.3007 5.81996 17.9194C6.42803 18.145 7.03616 18.3706 7.64423 18.5962C7.81854 18.8014 7.77929 18.9584 7.52654 19.067C6.95766 19.2827 6.38884 19.4985 5.81996 19.7143C5.55197 20.3218 5.30682 20.9397 5.08437 21.568C4.98021 21.6808 4.85269 21.7103 4.70186 21.6562C4.42987 21.0267 4.17483 20.3893 3.93685 19.7437C3.30124 19.4828 2.66374 19.2278 2.02431 18.9787C1.95822 18.7638 2.02688 18.6167 2.23028 18.5373C2.81966 18.3357 3.39834 18.1101 3.96627 17.8606C4.20619 17.2093 4.45135 16.5619 4.70186 15.9186Z" fill="#A768FF"/>
</svg>
