<svg width="21" height="19" viewBox="0 0 21 19" fill="none" xmlns="http://www.w3.org/2000/svg">
<path opacity="0.965" fill-rule="evenodd" clip-rule="evenodd" d="M10.061 0.00889892C10.3366 -0.021239 10.5965 0.0251737 10.8407 0.148143C11.4998 0.807212 12.1589 1.46634 12.818 2.12541C13.0036 2.45959 13.0036 2.79378 12.818 3.12796C12.1589 3.78703 11.4998 4.44616 10.8407 5.10522C10.5065 5.29086 10.1724 5.29086 9.83817 5.10522C9.1791 4.44616 8.51998 3.78703 7.86091 3.12796C7.67527 2.79378 7.67527 2.45959 7.86091 2.12541C8.57155 1.38674 9.30487 0.68128 10.061 0.00889892Z" fill="white"/>
<path opacity="0.999" fill-rule="evenodd" clip-rule="evenodd" d="M7.44289 7.19392C9.28102 7.18462 11.119 7.19392 12.9569 7.22177C13.0564 7.26549 13.14 7.33043 13.2076 7.41671C13.3 10.9396 13.3185 14.4671 13.2633 17.9992C13.2196 18.0987 13.1546 18.1823 13.0683 18.2499C11.198 18.3419 9.32279 18.3605 7.44289 18.3056C7.34341 18.2619 7.25987 18.1969 7.19225 18.1106C7.09985 14.5877 7.0813 11.0602 7.13655 7.5281C7.2123 7.38758 7.31439 7.27618 7.44289 7.19392Z" fill="white"/>
<path opacity="0.992" fill-rule="evenodd" clip-rule="evenodd" d="M15.0172 11.2599C15.2643 11.2437 15.5057 11.2716 15.7413 11.3434C17.078 11.8262 18.4148 12.3088 19.7515 12.7916C19.8965 12.8407 20.0171 12.9243 20.1136 13.0422C20.2054 14.5598 20.224 16.0822 20.1693 17.6094C20.1068 17.7277 20.0232 17.8298 19.9186 17.9157C18.2896 18.0076 16.6558 18.0262 15.0172 17.9714C14.8989 17.9089 14.7968 17.8254 14.7109 17.7208C14.6188 15.7018 14.6002 13.6782 14.6552 11.6498C14.7496 11.4906 14.8702 11.3606 15.0172 11.2599Z" fill="white"/>
<path opacity="0.99" fill-rule="evenodd" clip-rule="evenodd" d="M4.82558 12.5965C5.23506 12.4996 5.5414 12.6295 5.74459 12.9864C5.79934 14.5693 5.78079 16.1474 5.68889 17.7207C5.60295 17.8253 5.50085 17.9089 5.38255 17.9714C3.74398 18.0261 2.11015 18.0076 0.481167 17.9157C0.376551 17.8297 0.293004 17.7276 0.230528 17.6093C0.176251 16.5275 0.194815 15.4506 0.286226 14.3789C0.382633 14.2609 0.503313 14.1774 0.64826 14.1282C2.05262 13.6325 3.44506 13.1219 4.82558 12.5965Z" fill="white"/>
</svg>
