<svg width="24" height="24" viewBox="0 0 24 24" fill="none" xmlns="http://www.w3.org/2000/svg">
<path opacity="0.987" fill-rule="evenodd" clip-rule="evenodd" d="M11.6024 2.02301C14.4908 1.82391 16.736 2.91667 18.3383 5.30129C19.347 7.08451 19.569 8.96271 19.0042 10.9358C18.5885 12.1618 17.9055 13.2033 16.9552 14.0604C16.6202 14.4124 16.3043 14.7795 16.0076 15.1617C15.0857 15.1873 14.1637 15.1959 13.2416 15.1873C13.2245 14.2135 13.2416 13.2402 13.2928 12.2676C14.4605 11.81 15.0751 10.9563 15.1368 9.70647C14.71 9.70647 14.2831 9.70647 13.8562 9.70647C13.7507 10.5376 13.2812 10.9986 12.4476 11.0895C11.614 10.9986 11.1445 10.5376 11.039 9.70647C10.6121 9.70647 10.1852 9.70647 9.7584 9.70647C9.82007 10.9563 10.4347 11.81 11.6024 12.2676C11.6536 13.2402 11.6707 14.2135 11.6536 15.1873C10.7192 15.204 9.78862 15.1869 8.86199 15.1361C8.59092 14.7796 8.30069 14.4381 7.9912 14.1116C5.79327 12.0483 5.11032 9.55551 5.94228 6.63309C6.96531 4.03023 8.85201 2.49354 11.6024 2.02301Z" fill="white"/>
<path opacity="0.988" fill-rule="evenodd" clip-rule="evenodd" d="M8.83622 16.5191C11.2437 16.5105 13.6512 16.5191 16.0587 16.5447C16.7674 16.8443 16.9979 17.3651 16.7502 18.107C16.6455 18.2837 16.5174 18.4373 16.366 18.568C16.7907 18.9116 16.9358 19.3556 16.8014 19.8998C16.6685 20.2547 16.421 20.4852 16.0587 20.5913C15.393 20.6169 14.7271 20.6255 14.061 20.6169C13.8808 21.5098 13.3344 21.9708 12.4218 21.9999C11.5085 21.9706 10.9622 21.5096 10.7827 20.6169C10.1336 20.6255 9.4848 20.6169 8.83622 20.5913C8.07642 20.257 7.86298 19.7021 8.19593 18.9266C8.28408 18.7833 8.39503 18.6637 8.52888 18.568C8.10419 18.2244 7.95907 17.7804 8.09348 17.2362C8.23557 16.8806 8.48313 16.6415 8.83622 16.5191Z" fill="white"/>
</svg>
