<svg width="25" height="25" viewBox="0 0 25 25" fill="none" xmlns="http://www.w3.org/2000/svg">
<path d="M12.5733 0.0134277H12.6279C19.236 0.0134277 24.6006 5.37955 24.6006 11.9896V12.0443C24.6006 18.6544 19.236 24.0205 12.6279 24.0205H12.5733C5.96512 24.0205 0.600586 18.6544 0.600586 12.0443V11.9896C0.600586 5.37955 5.96512 0.0134277 12.5733 0.0134277Z" fill="#FF4500"/>
<path d="M20.0359 11.7163C19.8366 10.8121 19.0109 10.2259 18.1919 10.4067C17.9128 10.4681 17.6723 10.612 17.4823 10.8088C16.3799 10.0081 14.8748 9.47902 13.194 9.37893L13.9987 6.02805L16.3858 6.59915C16.4253 7.25183 16.966 7.7691 17.6286 7.7691C18.2911 7.7691 18.8747 7.21062 18.8747 6.52261C18.8747 5.8346 18.3164 5.27612 17.6286 5.27612C17.13 5.27612 16.7003 5.56966 16.5019 5.99357L13.9121 5.37369C13.7086 5.32491 13.5043 5.45023 13.4547 5.65377L12.5642 9.36211C10.6891 9.3722 8.99739 9.9147 7.78322 10.7835C7.72352 10.728 7.65962 10.6767 7.58983 10.6313C6.88269 10.1796 5.90563 10.4463 5.40785 11.226C4.91008 12.0056 5.07909 13.0048 5.78623 13.4565C5.82827 13.4834 5.87116 13.507 5.91488 13.5288C5.88629 13.7029 5.87116 13.8804 5.87116 14.0596C5.87116 16.6543 8.89061 18.7579 12.6155 18.7579C16.3404 18.7579 19.3599 16.6543 19.3599 14.0596C19.3599 13.8779 19.3439 13.6987 19.3144 13.523C19.8887 13.189 20.2015 12.4615 20.0376 11.7163H20.0359ZM9.15715 12.9712C9.15715 12.3799 9.63643 11.9005 10.2275 11.9005C10.8186 11.9005 11.2979 12.3799 11.2979 12.9712C11.2979 13.5625 10.8186 14.0419 10.2275 14.0419C9.63643 14.0419 9.15715 13.5625 9.15715 12.9712ZM15.1019 16.3515C14.7731 16.6501 13.865 17.3465 12.5356 17.3591C12.5239 17.3591 12.5112 17.3591 12.4995 17.3591C11.1524 17.3591 10.2326 16.656 9.89708 16.3515C9.78945 16.254 9.78189 16.0874 9.87943 15.9806C9.97696 15.8729 10.1435 15.8654 10.2502 15.9629C10.542 16.2287 11.3484 16.8452 12.5306 16.8343C13.68 16.8234 14.4645 16.222 14.7487 15.9638C14.8563 15.8662 15.022 15.8738 15.1195 15.9814C15.2171 16.0891 15.2095 16.2548 15.1019 16.3524V16.3515ZM14.9724 14.0419C14.3813 14.0419 13.902 13.5625 13.902 12.9712C13.902 12.3799 14.3813 11.9005 14.9724 11.9005C15.5635 11.9005 16.0428 12.3799 16.0428 12.9712C16.0428 13.5625 15.5635 14.0419 14.9724 14.0419Z" fill="white"/>
</svg>
