<svg width="25" height="25" viewBox="0 0 25 25" fill="none" xmlns="http://www.w3.org/2000/svg">
<rect x="2.7998" y="2.01343" width="20" height="20" fill="white"/>
<path d="M3.58493 0.084218C2.1848 0.37679 1.02786 1.47377 0.884987 2.95002C0.737036 4.47471 0.884987 6.08927 0.884987 7.62224V17.1535C0.884987 18.9063 0.444309 21.2832 1.56759 22.7601C2.78105 24.3549 4.99523 23.975 6.74905 23.975H20.3396C20.8781 23.975 21.4876 24.0541 22.0153 23.9438C23.4154 23.6512 24.5718 22.5542 24.7146 21.078C24.8626 19.5533 24.7146 17.9387 24.7146 16.4058V6.87456C24.7146 5.12168 25.1553 2.74477 24.032 1.26789C22.8186 -0.326912 20.6044 0.0529849 18.8506 0.0529849H5.26002C4.72155 0.0529849 4.11197 -0.0260541 3.5843 0.084218M12.0556 8.55605L11.4041 10.3312H12.521L11.5902 12.5737L12.4277 12.6674C12.3356 12.9179 12.2118 13.3902 12.0245 13.5865C11.8867 13.7306 11.6765 13.6955 11.4968 13.6955C11.0911 13.6955 10.2713 13.8644 10.0541 13.415C9.95445 13.2092 10.0973 12.9491 10.178 12.7611C10.3469 12.3678 10.571 11.9656 10.6586 11.5461C10.4561 11.5461 10.2002 11.5863 10.0072 11.5149C9.28327 11.2478 10.0884 10.0795 10.2554 9.67726C10.3729 9.39489 10.512 8.7817 10.7672 8.60258C11.126 8.35144 11.6714 8.52546 12.055 8.55605M4.70187 14.4432C4.95777 14.4432 5.33812 14.5197 5.49306 14.2564C5.65752 13.9766 5.53941 13.3602 5.53941 13.0415V9.95772C5.53941 9.66897 5.394 8.78616 5.64799 8.60258C5.8569 8.45152 6.73381 8.48339 6.82716 8.74281C6.97955 9.16733 6.8424 9.87932 6.8424 10.3312V13.3213C6.8424 13.8338 6.93066 14.4298 6.71857 14.9098C6.51601 15.3674 5.57307 15.776 5.10508 15.4235C4.89935 15.2686 4.75267 14.6841 4.70187 14.4425M18.8506 8.55605V9.02328C19.1979 9.02328 19.6335 8.95188 19.9675 9.05451C21.0825 9.39616 20.9917 10.4957 20.9917 11.4531C21.1778 11.4531 21.3683 11.4384 21.5505 11.4843C22.6204 11.7527 22.4814 12.8267 22.4814 13.6955C22.4814 14.1589 22.5677 14.7064 22.2642 15.0972C21.9296 15.5274 21.3816 15.4707 20.899 15.4707C20.7492 15.4707 20.5021 15.5185 20.3713 15.4242C20.1269 15.2476 20.0196 14.723 19.9681 14.4432C20.2742 14.4432 20.826 14.5484 21.0698 14.3189C21.3568 14.048 21.2394 12.9892 20.899 12.8082C20.7187 12.7126 20.4444 12.7617 20.2475 12.7617H18.8512V15.4713H17.5482V12.7617H16.2452V11.4537H17.5482V10.3325H16.7107V9.02455H17.5482V8.55733H18.8512M15.8719 9.02328V10.3312H15.127V14.2558H16.3373V15.4707H12.0556L12.5522 14.303L13.7313 14.2564V10.3319H12.9865V9.02391H15.8719M21.1778 10.3319C21.1778 10.0661 21.1295 9.74737 21.2089 9.49113C21.52 8.48275 23.0351 9.29545 22.2795 10.1298C22.1937 10.2248 22.0426 10.2713 21.9226 10.3013C21.6845 10.3612 21.4216 10.3325 21.1778 10.3325M4.70187 10.3319L4.31389 13.7892L3.67764 14.9104L3.11886 13.415L3.39825 10.3312H4.70123M8.98356 10.3319L9.26295 13.4157L8.70417 14.8173H8.51812C8.01838 14.0231 7.95489 13.2041 7.86662 12.2945C7.80376 11.6481 7.68057 10.9827 7.68057 10.3325H8.98356M18.8506 10.3319V11.4531H19.6881V10.3319H18.8506ZM11.8689 14.2564L11.4035 15.4713H9.35566L9.85221 14.2099L10.5659 14.2252L11.8689 14.2564Z" fill="#FF2842"/>
</svg>
