<svg width="24" height="24" viewBox="0 0 24 24" fill="none" xmlns="http://www.w3.org/2000/svg">
<path opacity="0.98" fill-rule="evenodd" clip-rule="evenodd" d="M10.8777 2.02597C15.1506 1.76814 18.4223 3.42997 20.693 7.01153C21.9436 9.288 22.2967 11.6977 21.7524 14.2406C20.6111 18.4563 17.9002 21.0011 13.6197 21.8747C9.30268 22.3797 5.92708 20.8528 3.49282 17.2943C2.00143 14.7737 1.62751 12.0939 2.37107 9.25504C3.74814 5.12525 6.58368 2.7156 10.8777 2.02597ZM8.50954 6.20138C8.81796 6.16767 9.10881 6.21958 9.38202 6.35718C10.2453 7.10632 11.1178 7.84375 11.9994 8.56952C12.8811 7.84375 13.7535 7.10632 14.6169 6.35718C14.8907 6.20923 15.1815 6.16767 15.4893 6.23254C16.2458 6.92659 16.9832 7.64327 17.7017 8.38256C17.8378 8.72451 17.817 9.05686 17.6394 9.37968C16.8902 10.243 16.1528 11.1155 15.427 11.9971C16.1528 12.8787 16.8902 13.7512 17.6394 14.6145C17.7873 14.8883 17.8289 15.1791 17.764 15.487C17.0699 16.2434 16.3533 16.9809 15.614 17.6993C15.272 17.8355 14.9397 17.8147 14.6169 17.637C13.7535 16.8879 12.8811 16.1504 11.9994 15.4247C11.1178 16.1504 10.2453 16.8879 9.38202 17.637C9.10818 17.785 8.8174 17.8265 8.50954 17.7617C7.75311 17.0676 7.01568 16.3509 6.2972 15.6116C6.16103 15.2697 6.18185 14.9373 6.35952 14.6145C7.10866 13.7512 7.84609 12.8787 8.57186 11.9971C7.84609 11.1155 7.10866 10.243 6.35952 9.37968C6.21157 9.10584 6.17 8.81506 6.23488 8.5072C6.96402 7.7054 7.7222 6.93681 8.50954 6.20138Z" fill="#FF7063"/>
</svg>
