<svg width="24" height="25" viewBox="0 0 24 25" fill="none" xmlns="http://www.w3.org/2000/svg">
<path opacity="0.98" fill-rule="evenodd" clip-rule="evenodd" d="M10.8777 2.7952C15.1506 2.53737 18.4223 4.19919 20.693 7.78076C21.9436 10.0572 22.2967 12.4669 21.7524 15.0098C20.6111 19.2256 17.9002 21.7703 13.6197 22.644C9.30268 23.1489 5.92708 21.6221 3.49282 18.0635C2.00143 15.5429 1.62751 12.8632 2.37107 10.0243C3.74814 5.89447 6.58368 3.48483 10.8777 2.7952ZM8.50954 6.97061C8.81796 6.93689 9.10881 6.9888 9.38202 7.12641C10.2453 7.87555 11.1178 8.61298 11.9994 9.33875C12.8811 8.61298 13.7535 7.87555 14.6169 7.12641C14.8907 6.97846 15.1815 6.93689 15.4893 7.00177C16.2458 7.69582 16.9832 8.41249 17.7017 9.15179C17.8378 9.49374 17.817 9.82609 17.6394 10.1489C16.8902 11.0122 16.1528 11.8847 15.427 12.7663C16.1528 13.648 16.8902 14.5204 17.6394 15.3837C17.7873 15.6576 17.8289 15.9484 17.764 16.2562C17.0699 17.0127 16.3533 17.7501 15.614 18.4686C15.272 18.6047 14.9397 18.5839 14.6169 18.4062C13.7535 17.6571 12.8811 16.9197 11.9994 16.1939C11.1178 16.9197 10.2453 17.6571 9.38202 18.4062C9.10818 18.5542 8.8174 18.5958 8.50954 18.5309C7.75311 17.8368 7.01568 17.1202 6.2972 16.3809C6.16103 16.0389 6.18185 15.7066 6.35952 15.3837C7.10866 14.5204 7.84609 13.648 8.57186 12.7663C7.84609 11.8847 7.10866 11.0122 6.35952 10.1489C6.21157 9.87507 6.17 9.58429 6.23488 9.27643C6.96402 8.47463 7.7222 7.70604 8.50954 6.97061Z" fill="white"/>
</svg>
