<svg width="24" height="24" viewBox="0 0 24 24" fill="none" xmlns="http://www.w3.org/2000/svg">
<path opacity="0.976" fill-rule="evenodd" clip-rule="evenodd" d="M9.30487 2.02392C13.2606 1.77989 16.142 3.40268 17.9494 6.89231C18.9686 9.3519 18.8958 11.7757 17.7309 14.1637C19.0416 15.2247 20.3524 16.2858 21.6631 17.3468C22.0377 17.8372 22.0689 18.3469 21.7567 18.876C20.7231 19.9513 19.6517 20.9812 18.5423 21.9656C18.1415 22.0468 17.767 21.9844 17.4188 21.7783C16.3266 20.4364 15.2343 19.0945 14.142 17.7525C11.4975 19.0241 8.86565 18.9929 6.24653 17.6589C3.16403 15.7488 1.7597 12.9713 2.03351 9.3265C2.50062 6.15518 4.19625 3.91866 7.12034 2.61687C7.83761 2.3493 8.56581 2.15163 9.30487 2.02392ZM9.86661 4.70778C12.5674 4.67875 14.4711 5.88543 15.5776 8.32785C16.3788 10.8336 15.8067 12.9661 13.8612 14.7254C11.9472 16.1105 9.90824 16.3185 7.74449 15.3496C5.25656 13.8576 4.30997 11.6835 4.9046 8.82718C5.7052 6.41545 7.3592 5.04232 9.86661 4.70778Z" fill="white"/>
</svg>
