<svg width="24" height="24" viewBox="0 0 24 24" fill="none" xmlns="http://www.w3.org/2000/svg">
<path opacity="0.993" fill-rule="evenodd" clip-rule="evenodd" d="M11.11 2.00337C11.3643 1.99436 11.6178 2.00341 11.8708 2.03054C12.6948 2.59668 13.5461 3.12196 14.4247 3.60636C16.2232 4.53794 18.1251 5.15376 20.1302 5.45387C20.5646 5.56222 20.8635 5.82484 21.0268 6.24178C21.1935 10.7953 19.8351 14.8164 16.9514 18.305C15.53 19.908 13.8364 21.1306 11.8708 21.9728C11.6172 22.0091 11.3636 22.0091 11.11 21.9728C8.30502 20.762 6.10431 18.8511 4.50789 16.2401C2.5717 13.0781 1.75662 9.65479 2.06265 5.97009C2.25451 5.68726 2.51715 5.51522 2.85056 5.45387C5.89689 4.97124 8.65007 3.82105 11.11 2.00337Z" fill="white"/>
</svg>
