<svg width="24" height="24" viewBox="0 0 24 24" fill="none" xmlns="http://www.w3.org/2000/svg">
<path opacity="0.988" fill-rule="evenodd" clip-rule="evenodd" d="M9.29638 2.00366C11.2318 1.99389 13.1671 2.00366 15.1024 2.03299C15.3528 2.10749 15.4994 2.27365 15.5422 2.53148C15.5617 3.333 15.5813 4.13446 15.6009 4.93597C15.9673 5.14364 16.329 5.35864 16.6858 5.58108C17.3409 5.18504 18.0056 4.80384 18.6798 4.43748C18.9023 4.38839 19.1173 4.40792 19.3249 4.49613C19.5162 4.64814 19.6628 4.83387 19.7647 5.05327C20.5662 6.46077 21.3677 7.86828 22.1692 9.27579C22.2393 9.57489 22.1905 9.84859 22.0226 10.0968C21.3969 10.5076 20.7517 10.8888 20.0873 11.2404C20.0005 11.3166 19.9614 11.4144 19.97 11.5337C20.0079 11.9138 20.0177 12.295 19.9993 12.6773C20.6835 13.0878 21.3677 13.4983 22.0519 13.9088C22.2474 14.2607 22.2474 14.6126 22.0519 14.9645C21.2661 16.2787 20.5037 17.608 19.7647 18.9524C19.6628 19.1718 19.5162 19.3575 19.3249 19.5096C19.1173 19.5978 18.9023 19.6173 18.6798 19.5682C18.0056 19.2018 17.3409 18.8206 16.6858 18.4246C16.329 18.647 15.9673 18.862 15.6009 19.0697C15.5813 19.8712 15.5617 20.6727 15.5422 21.4742C15.4994 21.732 15.3528 21.8982 15.1024 21.9727C13.167 22.0118 11.2317 22.0118 9.29638 21.9727C9.07159 21.9043 8.92498 21.7576 8.85654 21.5328C8.83701 20.7118 8.81742 19.8908 8.79789 19.0697C8.43141 18.862 8.06974 18.647 7.71294 18.4246C7.05786 18.8206 6.39316 19.2018 5.71897 19.5682C5.4964 19.6173 5.28141 19.5978 5.07386 19.5096C4.88255 19.3575 4.73594 19.1718 4.63401 18.9524C3.83249 17.5449 3.03102 16.1374 2.22952 14.7299C2.1685 14.4402 2.20759 14.1665 2.34681 13.9088C2.98727 13.5054 3.64213 13.1242 4.31146 12.7652C4.39984 12.6789 4.43895 12.5713 4.42875 12.4427C4.37509 12.0715 4.36529 11.7001 4.39943 11.3284C3.7152 10.9179 3.03102 10.5074 2.34681 10.0968C2.15132 9.74496 2.15132 9.39308 2.34681 9.04121C3.10921 7.71187 3.87161 6.3826 4.63401 5.05327C4.73594 4.83387 4.88255 4.64814 5.07386 4.49613C5.28141 4.40792 5.4964 4.38839 5.71897 4.43748C6.39316 4.80384 7.05786 5.18504 7.71294 5.58108C8.06974 5.35864 8.43141 5.14364 8.79789 4.93597C8.81742 4.13446 8.83701 3.333 8.85654 2.53148C8.91067 2.27259 9.05728 2.09665 9.29638 2.00366ZM11.8182 8.92391C13.695 8.89506 14.8386 9.79428 15.249 11.6216C15.2958 13.4925 14.4063 14.6361 12.5806 15.0524C10.7021 15.1094 9.55853 14.22 9.14977 12.384C9.10426 10.5045 9.99375 9.35115 11.8182 8.92391Z" fill="white"/>
</svg>
