<svg width="25" height="24" viewBox="0 0 25 24" fill="none" xmlns="http://www.w3.org/2000/svg">
<path opacity="0.99" fill-rule="evenodd" clip-rule="evenodd" d="M7.76605 3.00356C11.1796 2.99407 14.593 3.00356 18.0064 3.032C19.6823 4.38543 21.3416 5.76026 22.9843 7.15659C23.1218 9.03467 22.3538 10.3905 20.6803 11.2243C18.8627 11.877 17.3361 11.4692 16.1006 10.0011C14.8351 11.4624 13.2896 11.8702 11.464 11.2243C10.8446 10.9469 10.3232 10.5391 9.89945 10.0011C8.6639 11.4692 7.13735 11.877 5.31974 11.2243C3.64616 10.3905 2.87813 9.03467 3.01567 7.15659C4.59325 5.75872 6.17675 4.3744 7.76605 3.00356Z" fill="white"/>
<path opacity="0.989" fill-rule="evenodd" clip-rule="evenodd" d="M9.87138 12.4474C10.3299 12.6733 10.804 12.8724 11.2936 13.0448C12.9643 13.5267 14.5478 13.3276 16.044 12.4474C17.6687 13.4003 19.3659 13.552 21.1358 12.9025C21.1547 13.1775 21.1737 13.4525 21.1926 13.7275C21.106 16.2212 21.0207 18.7149 20.9366 21.2086C20.9357 21.4859 20.8124 21.685 20.5668 21.806C15.5179 21.8626 10.4736 21.8436 5.43389 21.7491C5.24575 21.5745 5.16042 21.3564 5.17788 21.0948C5.07884 18.3833 4.9935 15.6715 4.92188 12.9594C6.2715 13.4239 7.61793 13.4144 8.96112 12.931C9.29331 12.8124 9.59676 12.6513 9.87138 12.4474ZM7.99398 15.1782C9.09402 15.1687 10.1939 15.1782 11.2936 15.2066C11.447 15.2459 11.5703 15.3312 11.6634 15.4626C11.7569 16.6333 11.7759 17.809 11.7203 18.9899C11.6565 19.1107 11.5712 19.215 11.4643 19.3028C10.3302 19.3955 9.19238 19.4145 8.05087 19.3597C7.76568 19.2926 7.6045 19.1125 7.5673 18.8192C7.52935 17.7952 7.52935 16.7711 7.5673 15.7471C7.59409 15.465 7.73632 15.2754 7.99398 15.1782Z" fill="white"/>
</svg>
