<svg width="25" height="24" viewBox="0 0 25 24" fill="none" xmlns="http://www.w3.org/2000/svg">
<path opacity="0.984" fill-rule="evenodd" clip-rule="evenodd" d="M18.4434 2.01255C18.8247 1.97227 19.1876 2.02894 19.5319 2.18262C20.6317 3.28247 21.7315 4.38224 22.8313 5.48209C23.0306 5.90129 23.0533 6.33213 22.8994 6.77466C19.4752 11.4234 16.051 16.0722 12.6268 20.7209C12.1926 21.0779 11.7051 21.1573 11.1642 20.959C11.056 20.8878 10.9539 20.8084 10.858 20.7209C8.22403 17.2478 5.61616 13.7557 3.03455 10.2442C2.96033 9.86344 3.0057 9.50063 3.17061 9.15572C4.04364 8.28269 4.91674 7.40959 5.78977 6.53656C6.30551 6.20892 6.80437 6.23165 7.28644 6.60459C8.51098 8.05588 9.73552 9.50723 10.9601 10.9585C11.0508 11.0039 11.1415 11.0039 11.2322 10.9585C13.406 8.18677 15.5716 5.40889 17.7291 2.62482C17.9402 2.37896 18.1783 2.17487 18.4434 2.01255Z" fill="white"/>
</svg>
