<svg width="24" height="24" viewBox="0 0 24 24" fill="none" xmlns="http://www.w3.org/2000/svg">
<path opacity="0.986" fill-rule="evenodd" clip-rule="evenodd" d="M13.672 2C15.9572 3.11562 17.9771 4.60114 19.7318 6.45652C19.86 6.61196 19.9778 6.775 20.085 6.94565C19.312 7.92706 18.4243 8.78755 17.422 9.52717C16.25 10.417 15.009 11.2051 13.6992 11.8913C13.672 10.8589 13.6629 9.82625 13.672 8.79348C12.2588 8.7844 10.8458 8.79348 9.43285 8.82065C7.1309 8.88886 4.99318 9.51386 3.01981 10.6957C2.83525 8.02935 3.9403 6.11815 6.33503 4.96196C6.74068 4.81071 7.15731 4.70201 7.58503 4.63587C9.61394 4.6087 11.6429 4.59962 13.672 4.6087C13.672 3.73913 13.672 2.86957 13.672 2Z" fill="white"/>
<path opacity="0.981" fill-rule="evenodd" clip-rule="evenodd" d="M10.1393 12.1086C10.2473 13.0853 10.2835 14.0816 10.248 15.0978C11.7336 15.1068 13.2191 15.0978 14.7045 15.0706C16.8001 14.9363 18.7566 14.3476 20.5741 13.3043C20.7364 15.7065 19.7581 17.4728 17.6393 18.6032C17.0839 18.8508 16.5041 19.0138 15.9002 19.0923C14.0162 19.1195 12.1321 19.1286 10.248 19.1195C10.248 20.0797 10.248 21.0398 10.248 21.9999C7.99904 20.9027 5.99719 19.4534 4.24257 17.6521C4.0848 17.4765 3.94893 17.2863 3.83496 17.0815C3.91235 16.9134 4.01197 16.7594 4.13387 16.6195C5.89964 14.7889 7.90143 13.2852 10.1393 12.1086Z" fill="white"/>
</svg>
