<svg width="25" height="24" viewBox="0 0 25 24" fill="none" xmlns="http://www.w3.org/2000/svg">
<path opacity="0.972" fill-rule="evenodd" clip-rule="evenodd" d="M18.8092 2C18.8757 2.00412 18.92 2.03957 18.9422 2.10636C19.0485 2.95723 19.1549 3.8081 19.2613 4.65897C19.2879 4.68556 19.3144 4.71215 19.341 4.73874C20.1919 4.84509 21.0428 4.95145 21.8936 5.05781C21.9366 5.07419 21.9721 5.10078 22 5.13758C20.8751 6.28907 19.7406 7.43243 18.5965 8.56765C18.0431 8.52564 17.4936 8.45475 16.948 8.35493C15.4678 9.83507 13.9876 11.3153 12.5075 12.7954C12.3698 13.8709 11.7582 14.3583 10.6728 14.2578C9.56167 13.9088 9.16283 13.1732 9.47627 12.0509C9.92228 11.3586 10.5427 11.1281 11.3375 11.3596C11.6743 11.0228 12.0112 10.6859 12.3479 10.3492C12.3845 10.3049 12.3757 10.2695 12.3214 10.2428C11.2586 9.56327 10.195 9.55444 9.1306 10.2162C8.19278 11.0572 7.93577 12.0765 8.3595 13.274C9.09944 14.9247 10.3669 15.6426 12.1618 15.4278C13.2759 15.0581 13.8697 14.287 13.9433 13.1145C14.3646 12.8461 14.7989 12.598 15.2462 12.37C15.7243 14.2412 15.2456 15.81 13.8104 17.0763C12.5481 17.916 11.1831 18.1287 9.71557 17.7145C7.66317 17.027 6.3071 15.6532 5.64735 13.5931C5.16666 11.7926 5.58322 10.2415 6.89707 8.9399C8.03037 8.0642 9.30668 7.76289 10.726 8.03585C11.7159 8.25166 12.5934 8.68592 13.3584 9.33875C13.7136 8.99234 14.0593 8.63779 14.3954 8.27516C12.5911 6.75168 10.5349 6.24648 8.22655 6.75955C6.37415 7.33564 5.15986 8.54994 4.58377 10.4023C4.07032 12.9213 4.69076 15.1193 6.44504 16.9966C8.21368 18.7915 10.3497 19.5272 12.8532 19.2035C15.5815 18.4596 17.0173 16.6693 17.1607 13.8324C17.1353 13.4185 17.0821 13.0108 17.0011 12.6093C17.7292 12.2896 18.4737 12.0148 19.2347 11.785C19.8385 14.1077 19.546 16.3057 18.3572 18.3792C16.5666 20.8737 14.1292 21.9638 11.0451 21.6498C7.61611 21.1258 5.0192 19.3798 3.25428 16.4116C1.83203 13.8651 1.61932 11.2238 2.61613 8.48788C3.81883 6.0019 5.7953 4.57494 8.54563 4.20694C11.1201 3.99944 13.4245 4.68189 15.4589 6.25435C15.4767 6.21888 15.4944 6.18346 15.5121 6.14799C15.4638 5.89927 15.4372 5.65113 15.4324 5.40348C16.5687 4.27602 17.6943 3.14151 18.8092 2Z" fill="white"/>
</svg>
