<svg width="25" height="24" viewBox="0 0 25 24" fill="none" xmlns="http://www.w3.org/2000/svg">
<path d="M12.8265 0H12.7719C6.1615 0 0.802734 5.36035 0.802734 11.9727V12.0273C0.802734 18.6397 6.1615 24 12.7719 24H12.8265C19.4369 24 24.7957 18.6397 24.7957 12.0273V11.9727C24.7957 5.36035 19.4369 0 12.8265 0Z" fill="#00B0F2"/>
<path d="M5.34657 11.591C5.3802 11.5741 5.41384 11.5582 5.44662 11.543C6.01654 11.279 6.59403 11.0318 7.17067 10.7846C7.20177 10.7846 7.25387 10.7484 7.2833 10.7367C7.32785 10.7173 7.37241 10.6988 7.41696 10.6795L7.67334 10.5693C7.84482 10.4962 8.01545 10.423 8.18693 10.3499C8.52905 10.2036 8.87116 10.0573 9.21328 9.91013C9.89752 9.61752 10.5826 9.32407 11.2669 9.03146C11.9511 8.73884 12.6362 8.44539 13.3204 8.15278C14.0047 7.86017 14.6897 7.56672 15.374 7.27411C16.0582 6.9815 16.7433 6.68804 17.4275 6.39543C17.5797 6.32985 17.7444 6.23231 17.9075 6.20372C18.0445 6.17934 18.1782 6.13225 18.316 6.10619C18.5774 6.05658 18.8658 6.0364 19.1163 6.14486C19.2029 6.1827 19.2827 6.23567 19.3491 6.3021C19.6669 6.61657 19.6223 7.13285 19.5551 7.57513C19.0868 10.6576 18.6186 13.741 18.1496 16.8235C18.0857 17.2464 17.9983 17.7106 17.6646 17.978C17.3821 18.2041 16.9803 18.2294 16.6315 18.1335C16.2826 18.0368 15.975 17.8342 15.6732 17.6349C14.4216 16.8058 13.1691 15.9768 11.9175 15.1477C11.6199 14.9509 11.2887 14.6936 11.2921 14.3363C11.2938 14.121 11.4224 13.9293 11.5535 13.7586C12.6412 12.3393 14.2106 11.3639 15.3782 10.0102C15.5429 9.81932 15.6724 9.47458 15.4463 9.36443C15.3118 9.29884 15.1571 9.38797 15.0344 9.4729C13.491 10.545 11.9486 11.6179 10.4053 12.6899C9.90174 13.0397 9.37385 13.3996 8.76695 13.4854C8.22393 13.5627 7.67755 13.4114 7.15218 13.2567C6.71171 13.1272 6.27207 12.9943 5.83412 12.8573C5.60128 12.785 5.36087 12.7068 5.18098 12.5428C5.0011 12.3788 4.89772 12.103 5.00615 11.8844C5.07424 11.7474 5.20622 11.6608 5.34491 11.5901L5.34657 11.591Z" fill="#FEFFFC"/>
</svg>
