<svg width="25" height="25" viewBox="0 0 25 25" fill="none" xmlns="http://www.w3.org/2000/svg">
<path d="M12.2002 24.0134C18.8276 24.0134 24.2002 18.6408 24.2002 12.0134C24.2002 5.38601 18.8276 0.0134277 12.2002 0.0134277C5.57278 0.0134277 0.200195 5.38601 0.200195 12.0134C0.200195 18.6408 5.57278 24.0134 12.2002 24.0134Z" fill="url(#paint0_linear_19450_4312)"/>
<path d="M5.19499 11.9094L13.2759 8.57997C14.0736 8.23315 16.7788 7.12332 16.7788 7.12332C16.7788 7.12332 18.0274 6.63777 17.9233 7.81696C17.8886 8.30251 17.6112 10.0019 17.3337 11.8401L16.4667 17.2852C16.4667 17.2852 16.3973 18.0829 15.8077 18.2216C15.2181 18.3603 14.247 17.736 14.0736 17.5973C13.9349 17.4933 11.4724 15.9326 10.5707 15.1696C10.3279 14.9615 10.0505 14.5453 10.6054 14.0597C11.854 12.9152 13.3453 11.4933 14.247 10.5915C14.6632 10.1753 15.0794 9.20425 13.3453 10.3834L8.45511 13.6782C8.45511 13.6782 7.90019 14.0251 6.85973 13.7129C5.81927 13.4008 4.60539 12.9846 4.60539 12.9846C4.60539 12.9846 3.77302 12.4644 5.19499 11.9094Z" fill="white"/>
<defs>
<linearGradient id="paint0_linear_19450_4312" x1="16.2011" y1="4.01435" x2="10.2011" y2="18.0134" gradientUnits="userSpaceOnUse">
<stop stop-color="#37AEE2"/>
<stop offset="1" stop-color="#1E96C8"/>
</linearGradient>
</defs>
</svg>
