<svg width="20" height="25" viewBox="0 0 20 25" fill="none" xmlns="http://www.w3.org/2000/svg">
<path d="M19.9397 8.05906V11.6875C19.3057 11.6255 18.482 11.4815 17.5708 11.1476C16.381 10.7114 15.4953 10.1149 14.9152 9.65314V16.9867L14.9004 16.9638C14.9098 17.1092 14.9152 17.2573 14.9152 17.4068C14.9152 21.0486 11.9528 24.0133 8.31064 24.0133C4.66849 24.0133 1.70605 21.0486 1.70605 17.4068C1.70605 13.7649 4.66849 10.7989 8.31064 10.7989C8.66731 10.7989 9.01727 10.8272 9.35914 10.8824V14.4583C9.03073 14.3411 8.67808 14.2778 8.31064 14.2778C6.58647 14.2778 5.18265 15.6807 5.18265 17.4068C5.18265 19.1328 6.58647 20.5357 8.31064 20.5357C10.0348 20.5357 11.4386 19.1314 11.4386 17.4068C11.4386 17.3421 11.4373 17.2775 11.4332 17.2129V2.96179H15.0579C15.0714 3.26876 15.0835 3.57842 15.0969 3.88539C15.1212 4.4899 15.3365 5.07017 15.712 5.54543C16.1522 6.10417 16.8022 6.75311 17.7148 7.27145C18.5695 7.75614 19.3717 7.96347 19.9397 8.06176V8.05906Z" fill="#FF004F"/>
<path d="M18.6936 5.11339V8.7418C18.0596 8.67987 17.2359 8.53581 16.3247 8.20191C15.1349 7.7657 14.2492 7.16927 13.6691 6.70747V14.041L13.6543 14.0181C13.6637 14.1635 13.6691 14.3116 13.6691 14.4611C13.6691 18.103 10.7067 21.0676 7.06454 21.0676C3.4224 21.0676 0.459961 18.103 0.459961 14.4611C0.459961 10.8192 3.4224 7.85321 7.06454 7.85321C7.42122 7.85321 7.77117 7.88148 8.11304 7.93668V11.5126C7.78463 11.3955 7.43199 11.3322 7.06454 11.3322C5.34038 11.3322 3.93655 12.7351 3.93655 14.4611C3.93655 16.1871 5.34038 17.59 7.06454 17.59C8.78871 17.59 10.1925 16.1858 10.1925 14.4611C10.1925 14.3965 10.1912 14.3318 10.1871 14.2672V0.0134277H13.8118C13.8253 0.320395 13.8374 0.630055 13.8508 0.937022C13.8751 1.54153 14.0904 2.12181 14.4659 2.59707C14.9061 3.1558 15.5562 3.80474 16.4687 4.32309C17.3234 4.80643 18.1256 5.01511 18.6936 5.11339Z" fill="#00F7EF"/>
<path d="M19.4865 6.69932V10.3277C18.8526 10.2658 18.0289 10.1217 17.1177 9.78784C15.9278 9.35163 15.0422 8.7552 14.4621 8.2934V15.627L14.4473 15.6041C14.4567 15.7495 14.4621 15.8976 14.4621 16.047C14.4621 19.6889 11.4997 22.6535 7.85751 22.6535C4.21537 22.6535 1.25293 19.6889 1.25293 16.047C1.25293 12.4051 4.21537 9.43914 7.85751 9.43914C8.21419 9.43914 8.56414 9.46741 8.90601 9.52262V13.0985C8.5776 12.9814 8.22496 12.9181 7.85751 12.9181C6.13335 12.9181 4.72952 14.321 4.72952 16.047C4.72952 17.773 6.13335 19.1759 7.85751 19.1759C9.58168 19.1759 10.9855 17.7717 10.9855 16.047C10.9855 15.9824 10.9842 15.9178 10.9801 15.8531V1.60205H14.6048C14.6182 1.90902 14.6303 2.21868 14.6438 2.52565C14.668 3.13016 14.8834 3.71043 15.2589 4.18569C15.699 4.74443 16.3491 5.39337 17.2617 5.91171C18.1164 6.39505 18.9185 6.60373 19.4865 6.70202V6.69932Z" fill="white"/>
</svg>
