<svg width="24" height="24" viewBox="0 0 24 24" fill="none" xmlns="http://www.w3.org/2000/svg">
<path opacity="0.985" fill-rule="evenodd" clip-rule="evenodd" d="M5.04928 4.00346C9.55613 3.99424 14.063 4.00346 18.5698 4.03105C19.3605 4.10792 20.1515 4.18154 20.9428 4.25179C21.3464 4.32442 21.6132 4.55438 21.743 4.94161C22.1139 8.52366 20.6698 11.0622 17.4109 12.5572C16.1655 14.7202 14.2892 15.7872 11.7819 15.758C9.2679 15.7798 7.39159 14.7037 6.153 12.5296C3.04875 11.1146 1.60472 8.69562 1.82092 5.27273C1.84654 4.71375 2.13167 4.37342 2.6763 4.25179C3.47776 4.18993 4.26874 4.10715 5.04928 4.00346ZM5.10447 5.82458C5.25165 5.82458 5.39877 5.82458 5.54595 5.82458C5.55517 7.22277 5.54595 8.62079 5.51836 10.0187C4.27696 8.97028 3.6607 7.62739 3.66964 5.99014C4.15787 5.95433 4.63616 5.89914 5.10447 5.82458ZM18.0179 5.82458C18.6628 5.86884 19.3067 5.92403 19.9494 5.99014C19.9534 7.65581 19.3188 9.01702 18.0455 10.0739C18.0179 8.65754 18.0087 7.24115 18.0179 5.82458ZM11.7268 6.542C11.847 6.56076 11.9482 6.61595 12.0303 6.70756C12.1874 7.24424 12.3529 7.77766 12.5269 8.30794C12.6813 8.51759 12.8561 8.71074 13.0512 8.88739C13.5874 9.11514 14.1393 9.29913 14.7068 9.43925C15.0011 9.62318 15.0011 9.80717 14.7068 9.9911C14.0592 10.1148 13.4522 10.3356 12.8857 10.6533C12.7263 10.8311 12.5883 11.0243 12.4718 11.2328C12.3332 11.732 12.186 12.2287 12.0303 12.7228C11.876 12.867 11.7196 12.867 11.5612 12.7228C11.4105 12.2064 11.2541 11.6913 11.0921 11.1776C10.8959 10.8159 10.6108 10.5491 10.2367 10.3774C9.73654 10.2294 9.23986 10.0731 8.74673 9.90833C8.60435 9.77279 8.60435 9.63483 8.74673 9.49443C9.22436 9.34742 9.70265 9.20024 10.1816 9.05295C10.6506 8.87817 10.9725 8.55628 11.1473 8.0872C11.2761 7.64571 11.4049 7.20423 11.5336 6.76274C11.5717 6.66065 11.636 6.58703 11.7268 6.542Z" fill="#FFC400"/>
<path opacity="0.989" fill-rule="evenodd" clip-rule="evenodd" d="M9.7393 16.9721C11.119 16.9629 12.4987 16.9721 13.8782 16.9997C13.9426 17.0641 14.007 17.1284 14.0714 17.1928C14.2635 17.7779 14.4383 18.3665 14.5956 18.9588C14.8172 18.9496 15.0379 18.9588 15.2579 18.9864C15.2855 19.014 15.3131 19.0415 15.3406 19.0691C15.3775 19.4186 15.3775 19.7682 15.3406 20.1177C15.2787 20.2349 15.1959 20.336 15.0923 20.4212C14.0026 20.4849 12.9081 20.5125 11.8088 20.504C10.7095 20.5125 9.61491 20.4849 8.52521 20.4212C8.42157 20.336 8.33879 20.2349 8.27687 20.1177C8.24007 19.7682 8.24007 19.4186 8.27687 19.0691C8.30447 19.0415 8.33206 19.014 8.35965 18.9864C8.57962 18.9588 8.80037 18.9496 9.02188 18.9588C9.17922 18.3665 9.35399 17.7779 9.54615 17.1928C9.62208 17.1263 9.68643 17.0528 9.7393 16.9721Z" fill="#FFC400"/>
</svg>
