<svg width="21" height="17" viewBox="0 0 21 17" fill="none" xmlns="http://www.w3.org/2000/svg">
<path opacity="0.985" fill-rule="evenodd" clip-rule="evenodd" d="M4.04928 0.00345687C8.55613 -0.00575914 13.063 0.00345687 17.5698 0.0310497C18.3605 0.107923 19.1515 0.181541 19.9428 0.251792C20.3464 0.324417 20.6132 0.554376 20.743 0.941614C21.1139 4.52366 19.6698 7.0622 16.4109 8.55724C15.1655 10.7202 13.2892 11.7872 10.7819 11.758C8.2679 11.7798 6.39159 10.7037 5.153 8.52965C2.04875 7.11457 0.60472 4.69562 0.820921 1.27273C0.846543 0.713752 1.13167 0.373422 1.6763 0.251792C2.47776 0.189929 3.26874 0.107151 4.04928 0.00345687ZM4.10447 1.82458C4.25165 1.82458 4.39877 1.82458 4.54595 1.82458C4.55517 3.22277 4.54595 4.62079 4.51836 6.0187C3.27696 4.97028 2.6607 3.62739 2.66964 1.99014C3.15787 1.95433 3.63616 1.89914 4.10447 1.82458ZM17.0179 1.82458C17.6628 1.86884 18.3067 1.92403 18.9494 1.99014C18.9534 3.65581 18.3188 5.01702 17.0455 6.07388C17.0179 4.65754 17.0087 3.24115 17.0179 1.82458ZM10.7268 2.542C10.847 2.56076 10.9482 2.61595 11.0303 2.70756C11.1874 3.24424 11.3529 3.77766 11.5269 4.30794C11.6813 4.51759 11.8561 4.71074 12.0512 4.88739C12.5874 5.11514 13.1393 5.29913 13.7068 5.43925C14.0011 5.62318 14.0011 5.80717 13.7068 5.9911C13.0592 6.11483 12.4522 6.33557 11.8857 6.65333C11.7263 6.83114 11.5883 7.02429 11.4718 7.23278C11.3332 7.73199 11.186 8.22866 11.0303 8.7228C10.876 8.867 10.7196 8.867 10.5612 8.7228C10.4105 8.20637 10.2541 7.69132 10.0921 7.1776C9.89593 6.81585 9.61084 6.54914 9.23674 6.3774C8.73654 6.2294 8.23986 6.07305 7.74673 5.90833C7.60435 5.77279 7.60435 5.63483 7.74673 5.49443C8.22436 5.34742 8.70265 5.20024 9.18155 5.05295C9.65063 4.87817 9.97253 4.55628 10.1473 4.0872C10.2761 3.64571 10.4049 3.20423 10.5336 2.76274C10.5717 2.66065 10.636 2.58703 10.7268 2.542Z" fill="#CCCCCC"/>
<path opacity="0.989" fill-rule="evenodd" clip-rule="evenodd" d="M8.7393 12.9722C10.119 12.963 11.4987 12.9722 12.8782 12.9998C12.9426 13.0642 13.007 13.1285 13.0714 13.1929C13.2635 13.778 13.4383 14.3666 13.5956 14.9589C13.8172 14.9497 14.0379 14.9589 14.2579 14.9865C14.2855 15.0141 14.3131 15.0417 14.3406 15.0693C14.3775 15.4188 14.3775 15.7683 14.3406 16.1178C14.2787 16.235 14.1959 16.3362 14.0923 16.4213C13.0026 16.4851 11.9081 16.5126 10.8088 16.5041C9.70946 16.5126 8.61491 16.4851 7.52521 16.4213C7.42157 16.3362 7.33879 16.235 7.27687 16.1178C7.24007 15.7683 7.24007 15.4188 7.27687 15.0693C7.30447 15.0417 7.33206 15.0141 7.35965 14.9865C7.57962 14.9589 7.80037 14.9497 8.02188 14.9589C8.17922 14.3666 8.35399 13.778 8.54615 13.1929C8.62208 13.1265 8.68643 13.0529 8.7393 12.9722Z" fill="#CCCCCC"/>
</svg>
