<svg width="12" height="14" viewBox="0 0 12 14" fill="none" xmlns="http://www.w3.org/2000/svg">
<g id="Group">
<path id="Vector" opacity="0.989" fill-rule="evenodd" clip-rule="evenodd" d="M5.60242 0.340825C5.8303 0.317349 6.0479 0.34935 6.25527 0.436832C7.48586 1.47521 8.56756 2.64651 9.50033 3.95072C10.089 4.76935 10.6394 5.61422 11.1517 6.48532C11.1773 6.58774 11.1773 6.69012 11.1517 6.79255C11.1325 6.86294 11.0876 6.90775 11.0173 6.92696C10.1597 6.94616 9.30202 6.95257 8.44425 6.94616C8.1467 9.12492 7.8331 11.3011 7.50337 13.4747C7.44412 13.5468 7.37373 13.6044 7.29216 13.6475C6.26806 13.6731 5.24401 13.6731 4.21991 13.6475C4.11111 13.5899 4.02789 13.5067 3.97029 13.3979C3.70803 11.2485 3.45841 9.09792 3.22143 6.94616C2.37645 6.95257 1.53158 6.94616 0.686825 6.92696C0.616432 6.90775 0.571616 6.86294 0.552414 6.79255C0.526799 6.69012 0.526799 6.58774 0.552414 6.48532C1.8125 4.28121 3.38061 2.31628 5.25679 0.590445C5.36824 0.497617 5.48345 0.414409 5.60242 0.340825Z" fill="#FEFFFE"/>
</g>
</svg>
