<svg width="20" height="20" viewBox="0 0 20 20" fill="none" xmlns="http://www.w3.org/2000/svg">
<path opacity="0.983" fill-rule="evenodd" clip-rule="evenodd" d="M18.578 0.00368826C18.7595 -0.00620735 18.9398 0.0038085 19.1191 0.0337479C19.7193 2.34178 19.1582 4.32572 17.4358 5.98555C16.087 7.101 14.564 7.90257 12.8667 8.39031C13.8013 8.41647 14.7231 8.31625 15.6322 8.08972C16.574 7.84924 17.4958 7.54865 18.3977 7.18793C18.8399 7.07869 19.0102 7.24907 18.9087 7.69894C18.2543 10.3174 16.6412 12.0509 14.0691 12.8993C14.8506 12.9193 15.6322 12.9394 16.4137 12.9594C16.5589 13.031 16.6391 13.1512 16.6542 13.3201C15.9561 15.441 14.5533 16.8638 12.4459 17.5885C12.1674 17.6834 11.987 17.5932 11.9048 17.318C12.3556 16.1962 12.5259 15.0338 12.4158 13.8311C11.8254 11.1847 10.1722 9.76181 7.45597 9.56264C5.47637 9.64873 4.24392 10.6507 3.75864 12.5686C3.59981 13.6627 3.97056 14.5144 4.87085 15.1237C5.03046 15.1907 5.19074 15.2308 5.3518 15.2439C4.86165 14.2658 4.87163 13.2939 5.38186 12.3281C6.0885 11.4709 7.00033 11.1202 8.11728 11.276C9.63006 11.4663 10.5819 12.2979 10.9729 13.771C11.3006 15.3589 11.02 16.8218 10.1313 18.1597C8.77595 19.6203 7.10259 20.2115 5.11132 19.9332C2.89287 19.5975 1.33981 18.4051 0.452087 16.3561C-0.813854 11.7156 0.578879 8.11852 4.63037 5.56471C6.55689 4.4813 8.5609 3.5595 10.6423 2.79923C13.273 1.81219 15.9182 0.880346 18.578 0.00368826Z" fill="white"/>
</svg>
