<svg width="25" height="24" viewBox="0 0 25 24" fill="none" xmlns="http://www.w3.org/2000/svg">
<path d="M12.884 3.21714C13.355 3.57797 13.7123 4.08238 14.0719 4.54906C14.2011 4.71659 14.3335 4.88116 14.467 5.04529C14.8318 5.49505 15.1733 5.95951 15.5082 6.43193C15.6002 6.56177 15.6929 6.69122 15.7855 6.82067C16.8891 8.37132 17.8833 10.0089 18.8062 11.6731C18.9025 11.8462 18.9996 12.0189 19.0968 12.1915C20.0287 13.8542 20.8858 15.556 21.6911 17.2833C21.7073 17.318 21.7235 17.3527 21.7402 17.3884C21.9711 17.8865 22.0722 18.352 21.9436 18.899C21.8087 19.2081 21.5487 19.4733 21.2611 19.6423C20.735 19.8223 20.1718 19.8753 19.6226 19.9445C19.5541 19.9533 19.5541 19.9533 19.4842 19.9623C17.1907 20.2565 14.9118 20.3785 12.6005 20.3742C12.4306 20.3739 12.2607 20.3738 12.0907 20.3736C10.5043 20.3717 8.92441 20.3565 7.34386 20.2063C7.17876 20.1907 7.01361 20.1756 6.84845 20.1606C6.064 20.0887 5.28077 20.008 4.49829 19.9171C4.4338 19.9096 4.4338 19.9096 4.368 19.902C4.11909 19.8728 3.87067 19.8411 3.62237 19.8071C3.53859 19.7965 3.53859 19.7965 3.45312 19.7856C2.99362 19.7172 2.56854 19.5762 2.27241 19.2026C1.99505 18.8027 1.9668 18.4151 2.02509 17.9385C2.10709 17.6642 2.21905 17.4104 2.34063 17.1515C2.42021 16.982 2.49765 16.8116 2.57512 16.6411C3.10466 15.4821 3.67128 14.3547 4.30494 13.2489C4.40175 13.0785 4.49566 12.9065 4.58928 12.7343C5.17972 11.6513 5.85264 10.6135 6.53181 9.58456C6.57697 9.51572 6.62213 9.44688 6.66728 9.37803C7.51211 8.09547 8.40889 6.8482 9.34315 5.62959C9.50122 5.42322 9.65712 5.21542 9.81175 5.00647C10.0711 4.65653 10.3379 4.31324 10.6126 3.9752C10.6431 3.93724 10.6735 3.89929 10.7049 3.86018C11.2688 3.1742 12.0042 2.70393 12.884 3.21714ZM9.9943 7.77088C9.95749 7.9479 9.95749 7.9479 9.97148 8.14582C9.97257 8.18363 9.97366 8.22144 9.97479 8.26039C9.97936 8.39051 9.98654 8.52028 9.9943 8.65024C9.99699 8.69779 9.99968 8.74534 10.0025 8.79433C10.0253 9.18355 10.0546 9.5722 10.0847 9.96091C10.0942 10.0857 10.1036 10.2104 10.1131 10.3351C10.1328 10.5948 10.1529 10.8544 10.1731 11.114C10.1989 11.4463 10.2238 11.7785 10.2485 12.1108C10.2677 12.3677 10.2875 12.6245 10.3075 12.8813C10.3169 13.0038 10.3261 13.1264 10.3351 13.249C10.3477 13.4199 10.3612 13.5909 10.3749 13.7618C10.3784 13.8119 10.3819 13.8621 10.3856 13.9138C10.4101 14.2068 10.4605 14.4349 10.5989 14.6959C10.7289 14.7609 10.8098 14.7588 10.9549 14.7605C11.0314 14.7616 11.0314 14.7616 11.1094 14.7627C11.1647 14.7631 11.2199 14.7635 11.2768 14.7639C11.3618 14.7646 11.3618 14.7646 11.4485 14.7653C11.5686 14.766 11.6886 14.7666 11.8086 14.767C11.9924 14.768 12.176 14.7704 12.3597 14.7728C12.4762 14.7734 12.5927 14.7738 12.7092 14.7742C12.7918 14.7757 12.7918 14.7757 12.876 14.7771C12.9273 14.777 12.9787 14.7768 13.0316 14.7766C13.0766 14.777 13.1217 14.7773 13.1681 14.7776C13.3465 14.739 13.4053 14.6789 13.5117 14.531C13.5439 14.3803 13.5632 14.2468 13.5745 14.0946C13.5805 14.0294 13.5805 14.0294 13.5866 13.9628C13.5993 13.8225 13.6105 13.6821 13.6217 13.5417C13.6296 13.4503 13.6375 13.3588 13.6456 13.2674C13.6708 12.9751 13.6938 12.6826 13.7166 12.3901C13.725 12.2825 13.7335 12.1748 13.742 12.0672C13.7595 11.8435 13.777 11.6197 13.7943 11.396C13.8164 11.1113 13.839 10.8267 13.8616 10.542C13.8792 10.3204 13.8964 10.0988 13.9136 9.87716C13.9218 9.77225 13.9301 9.66735 13.9385 9.56245C13.9642 9.24023 13.9878 8.918 14.0064 8.59528C14.0087 8.55622 14.0109 8.51716 14.0133 8.47691C14.0187 8.37053 14.022 8.26406 14.0251 8.15759C14.027 8.09949 14.0288 8.04139 14.0307 7.98153C13.9998 7.7838 13.9238 7.69365 13.7865 7.55104C13.6385 7.477 13.5215 7.48745 13.3557 7.48548C13.2884 7.4846 13.2211 7.48372 13.1517 7.48281C13.0778 7.48217 13.004 7.48159 12.9302 7.48105C12.8744 7.48061 12.8744 7.48061 12.8176 7.48017C12.6209 7.4787 12.4242 7.47763 12.2276 7.47684C12.0649 7.47611 11.9023 7.47458 11.7396 7.47233C11.5432 7.46962 11.3467 7.46826 11.1502 7.46787C11.0754 7.4675 11.0006 7.46666 10.9259 7.46535C10.821 7.4636 10.7162 7.46377 10.6114 7.46401C10.5518 7.46357 10.4922 7.46312 10.4308 7.46267C10.2083 7.50864 10.1283 7.5896 9.9943 7.77088ZM10.3325 16.2151C10.2361 16.412 10.2434 16.6086 10.2433 16.8234C10.2429 16.8699 10.2425 16.9164 10.2421 16.9643C10.2415 17.0625 10.2413 17.1607 10.2416 17.2589C10.2416 17.4086 10.2393 17.5582 10.2369 17.7079C10.2366 17.8035 10.2365 17.8991 10.2365 17.9947C10.2356 18.0392 10.2347 18.0837 10.2337 18.1296C10.2365 18.3552 10.2557 18.5005 10.3982 18.6804C10.5854 18.857 10.7119 18.8795 10.9594 18.8825C11.0353 18.8836 11.0353 18.8836 11.1128 18.8847C11.1675 18.8851 11.2221 18.8855 11.2783 18.8859C11.3347 18.8864 11.391 18.8868 11.449 18.8873C11.5683 18.888 11.6875 18.8886 11.8067 18.889C11.9888 18.89 12.1707 18.8924 12.3528 18.8948C12.4686 18.8954 12.5845 18.8958 12.7004 18.8962C12.7819 18.8977 12.7819 18.8977 12.8649 18.8991C13.1802 18.8981 13.3777 18.8742 13.6217 18.653C13.7748 18.457 13.7494 18.2169 13.75 17.9784C13.7504 17.9344 13.7508 17.8903 13.7512 17.845C13.7517 17.7519 13.752 17.6589 13.752 17.5659C13.7522 17.4241 13.7542 17.2824 13.7563 17.1407C13.7566 17.0501 13.7568 16.9595 13.7569 16.8689C13.7577 16.8268 13.7585 16.7847 13.7593 16.7414C13.7569 16.4583 13.7056 16.2898 13.5117 16.0699C13.2647 15.9116 12.9647 15.9431 12.6807 15.9434C12.627 15.9432 12.5732 15.9429 12.5179 15.9427C12.4045 15.9424 12.2911 15.9423 12.1777 15.9426C12.0046 15.9428 11.8315 15.9415 11.6585 15.9401C11.5481 15.9399 11.4377 15.9399 11.3273 15.94C11.25 15.9392 11.25 15.9392 11.1711 15.9384C10.832 15.9408 10.5948 15.9817 10.3325 16.2151Z" fill="white"/>
</svg>
