<svg width="25" height="25" viewBox="0 0 25 25" fill="none" xmlns="http://www.w3.org/2000/svg">
<path d="M23.8986 6.38707C23.622 5.35382 22.8099 4.54183 21.7767 4.26524C19.9058 3.76343 12.4003 3.76343 12.4003 3.76343C12.4003 3.76343 4.89495 3.76343 3.02403 4.26524C1.99078 4.54183 1.17879 5.35382 0.902201 6.38707C0.400391 8.25799 0.400391 12.1638 0.400391 12.1638C0.400391 12.1638 0.400391 16.0697 0.902201 17.9406C1.17879 18.9739 1.99078 19.7858 3.02403 20.0624C4.89495 20.5642 12.4003 20.5642 12.4003 20.5642C12.4003 20.5642 19.9058 20.5642 21.7767 20.0624C22.8099 19.7858 23.622 18.9739 23.8986 17.9406C24.4004 16.0697 24.4004 12.1638 24.4004 12.1638C24.4004 12.1638 24.3984 8.25799 23.8986 6.38707Z" fill="#FF0000"/>
<path d="M9.99805 15.7638L16.2332 12.1642L9.99805 8.56458V15.7638Z" fill="white"/>
</svg>
