<svg width="104" height="44" viewBox="0 0 104 44" fill="none" xmlns="http://www.w3.org/2000/svg">
<g clip-path="url(#clip0_26413_17353)">
<path d="M64.276 22.9791H70.8642V20.942H64.276V19.8961H70.9707V17.8479H61.5762V26.2196H71.048V24.1256H64.276V22.9791Z" fill="white"/>
<path d="M40.6993 20.9141L39.2866 20.894C37.5745 20.8605 37.3458 20.5319 37.3458 20.1733C37.3458 19.8146 37.4938 19.4525 39.5254 19.4525H39.707C41.909 19.4525 42.0773 20.1397 42.1344 20.4582H44.8656V20.3465C44.8656 19.086 43.9687 17.7026 39.9885 17.7026H39.2115C35.3826 17.7026 34.6359 19.0089 34.6359 20.2593V20.3565C34.6359 21.6639 35.5967 22.7221 38.735 22.8148L40.1802 22.8483C42.121 22.9053 42.3833 23.2093 42.3833 23.692C42.3833 24.1747 42.1244 24.586 39.9167 24.586H39.7586C37.5903 24.586 37.292 23.7657 37.264 23.2595H34.5249V23.3937C34.5249 24.4965 35.0429 26.3861 39.4469 26.3861H40.225C44.4485 26.3861 45.1481 24.9681 45.1481 23.5925V23.4115C45.1481 21.7376 43.8521 20.9711 40.6993 20.9141Z" fill="white"/>
<path d="M79.2729 17.8479H75.8634L74.518 20.4928L71.6152 26.223H74.2893L75.0494 24.6887H80.1408L80.9178 26.2207H83.7656L80.6924 20.4928L79.2729 17.8479ZM75.9879 22.7992L77.1326 20.4928L77.5452 19.6604L77.9769 20.4951L79.1687 22.8014L75.9879 22.7992Z" fill="white"/>
<path d="M81.7065 17.847V20.1813H85.6879V26.2187H88.3182V20.1813H92.3029V17.847H81.7065Z" fill="white"/>
<path d="M59.5701 17.847L56.9533 17.8526L58.3133 20.492L56.6528 24.0007L53.2948 17.847L50.5973 17.8526L52.0828 20.7244L50.5357 24.0007L47.1597 17.847H44.4644L48.8337 26.2165H52.1052L53.4765 23.3973L54.9486 26.2165H58.2236L61.003 20.492L59.5701 17.847Z" fill="white"/>
<path d="M11.4688 19.3956L11.4958 19.4462V19.3665L11.4688 19.3956Z" fill="white"/>
<path d="M25.5223 14.9647H22.5187L20.1261 17.5247L18.7257 14.9647H15.6076L11.4951 19.3617V19.441L16.9071 29.3358H19.9612L22.3213 26.8093L23.7037 29.3358H26.8733L30.9768 24.9432L25.5223 14.9647ZM18.5855 27.0417L14.6176 19.7863L17.0248 17.2163L20.9916 24.4683L18.5855 27.0417ZM25.4248 27.12L21.4557 19.8668L23.863 17.2967L27.8308 24.5521L25.4248 27.12Z" fill="white"/>
</g>
<defs>
<clipPath id="clip0_26413_17353">
<rect width="82" height="15.2165" fill="white" transform="translate(11 14.3917)"/>
</clipPath>
</defs>
</svg>
