<svg width="24" height="24" viewBox="0 0 24 24" fill="current" xmlns="http://www.w3.org/2000/svg">
<path opacity="0.984" fill-rule="evenodd" clip-rule="evenodd" d="M14.2507 2.03791C15.3232 1.88737 16.2428 2.18515 17.0095 2.93126C17.3557 3.38964 17.4345 3.88887 17.246 4.42893C17.392 4.50208 17.5496 4.52835 17.7189 4.50775C17.7302 4.59414 17.7126 4.67297 17.6664 4.74423C16.1586 5.73589 15.0813 7.07591 14.4346 8.76428C14.1433 9.85285 13.8455 10.9389 13.5412 12.0224C13.0169 13.2118 12.1148 13.9387 10.8349 14.2032C9.2218 14.4517 7.61026 14.4342 6.00035 14.1506C3.94323 13.7922 2.94478 12.566 3.00501 10.4721C3.01283 9.13665 3.30185 7.86668 3.87208 6.66229C4.93159 4.80503 6.53436 3.80658 8.68038 3.66696C9.59212 3.76338 10.503 3.84221 11.413 3.90343C12.1798 3.00368 13.1257 2.38184 14.2507 2.03791ZM14.6185 3.19401C15.1652 3.0985 15.5944 3.27367 15.906 3.71951C15.9379 3.93165 15.9291 4.14185 15.8797 4.3501C15.1257 4.28237 14.3725 4.20354 13.6201 4.11363C13.8644 3.70258 14.1972 3.39602 14.6185 3.19401ZM6.57839 9.92037C7.44037 9.79578 8.14979 10.0585 8.70666 10.7086C9.07361 11.6477 8.76704 12.2696 7.78704 12.5741C6.86468 12.7805 6.10271 12.5265 5.50112 11.8122C5.17778 11.17 5.30916 10.6357 5.89525 10.2094C6.11811 10.086 6.34586 9.98963 6.57839 9.92037Z" fill="current"/>
<path opacity="0.984" fill-rule="evenodd" clip-rule="evenodd" d="M18.2971 6.08427C18.9442 5.95437 19.3559 6.19962 19.532 6.81997C19.6041 7.82414 19.4815 8.80509 19.1642 9.76275C18.5558 11.6042 18.2405 13.496 18.2183 15.4381C18.1705 16.6114 18.1354 17.7849 18.1132 18.959C18.0399 19.3771 17.8385 19.7187 17.5089 19.9837C16.1187 20.9256 14.5772 21.381 12.8845 21.35C10.8266 21.5085 8.7947 21.3508 6.78871 20.877C5.50146 20.5533 4.37164 19.9489 3.39926 19.0641C2.50556 17.8993 2.11144 16.5768 2.21689 15.0966C2.19725 14.38 2.25856 13.6706 2.40081 12.9683C2.47416 12.8618 2.56174 12.8443 2.66356 12.9157C3.09272 13.9054 3.80214 14.6148 4.79183 15.044C5.51733 15.3436 6.27052 15.5363 7.05146 15.6221C8.75812 15.8305 10.4572 15.7867 12.1488 15.4907C12.2609 15.4915 12.366 15.5177 12.4641 15.5695C12.7719 16.7571 13.0346 17.957 13.2523 19.1692C13.3224 19.1692 13.3925 19.1692 13.4625 19.1692C13.5972 17.5566 13.7461 15.9451 13.9092 14.3346C14.1689 13.7626 14.4142 13.1846 14.6449 12.6004C14.9439 11.5446 15.2592 10.4936 15.5908 9.44746C15.8872 8.55684 16.3076 7.7336 16.852 6.97762C17.2504 6.53347 17.7321 6.23572 18.2971 6.08427Z" fill="current"/>
<path opacity="0.958" fill-rule="evenodd" clip-rule="evenodd" d="M20.6613 8.23877C20.8257 8.54624 20.9571 8.87904 21.0554 9.23721C21.5393 10.8223 21.9071 12.4338 22.159 14.0718C22.4173 16.5335 21.4627 18.3377 19.295 19.4844C19.2234 18.66 19.2321 17.8367 19.3213 17.0146C19.8258 16.3732 20.1762 15.655 20.3723 14.86C20.4295 13.7583 20.2456 12.6986 19.8205 11.6808C20.2203 10.5633 20.5005 9.41594 20.6613 8.23877Z" fill="current"/>
</svg>
