<svg width="21" height="21" viewBox="0 0 21 21" fill="none" xmlns="http://www.w3.org/2000/svg">
<path opacity="0.988" fill-rule="evenodd" clip-rule="evenodd" d="M2.51033 0.00412109C7.51039 -0.00686574 12.5104 0.00412109 17.5103 0.0370158C18.5785 0.184252 19.1487 0.798265 19.2208 1.87912C19.1269 3.97122 19.0611 6.06549 19.0235 8.162C15.9313 8.15102 12.8392 8.162 9.74716 8.1949C9.29762 8.29358 9.02348 8.56773 8.92479 9.01726C8.8919 12.1312 8.88091 15.2452 8.8919 18.3594C6.83039 18.3703 4.76901 18.3594 2.7077 18.3265C1.69566 18.0813 1.20224 17.4344 1.22744 16.3857C1.10119 11.5933 0.95862 6.80168 0.799805 2.0107C0.825528 0.856883 1.39572 0.188002 2.51033 0.00412109Z" fill="black"/>
<path opacity="0.993" fill-rule="evenodd" clip-rule="evenodd" d="M11.984 10.9252C14.835 10.9142 17.6858 10.9252 20.5366 10.9581C20.6134 11.0348 20.6901 11.1115 20.7669 11.1883C20.8108 13.7322 20.8108 16.276 20.7669 18.8199C20.5805 19.4449 20.1748 19.8506 19.5498 20.037C17.0059 20.0809 14.4621 20.0809 11.9182 20.037C11.8414 19.9602 11.7647 19.8835 11.6879 19.8067C11.6441 16.9559 11.6441 14.105 11.6879 11.2541C11.7554 11.1102 11.8541 11.0006 11.984 10.9252Z" fill="black"/>
</svg>
