<svg width="24" height="24" viewBox="0 0 24 24" fill="current" xmlns="http://www.w3.org/2000/svg">
<path opacity="0.982" fill-rule="evenodd" clip-rule="evenodd" d="M12.0668 2.01631C12.455 1.96221 12.8073 2.04272 13.1235 2.25784C14.5533 4.05133 15.4792 6.0843 15.9012 8.3567C16.0441 9.12775 16.1548 9.90273 16.2333 10.6815C16.2181 10.8511 16.1376 10.9719 15.9918 11.0438C13.5965 11.0841 11.2013 11.0841 8.80599 11.0438C8.66016 10.9719 8.57967 10.8511 8.56445 10.6815C8.74144 8.15133 9.45603 5.7863 10.7081 3.58631C11.0006 3.12207 11.3226 2.67927 11.6743 2.25784C11.8008 2.15974 11.9316 2.07922 12.0668 2.01631Z" fill="current"/>
<path opacity="0.969" fill-rule="evenodd" clip-rule="evenodd" d="M8.74611 2.62008C9.0586 2.56013 9.16935 2.68089 9.07823 2.98239C8.25669 4.09552 7.65284 5.32338 7.26668 6.66586C6.88149 8.07439 6.61984 9.50351 6.48168 10.9532C6.43639 10.991 6.38603 11.0212 6.33072 11.0437C5.08275 11.084 3.83484 11.084 2.58687 11.0437C2.43899 10.9313 2.3786 10.7803 2.40572 10.5909C3.08891 6.78862 5.20237 4.13169 8.74611 2.62008Z" fill="current"/>
<path opacity="0.968" fill-rule="evenodd" clip-rule="evenodd" d="M15.7507 2.62012C16.1535 2.68394 16.536 2.8148 16.898 3.01262C19.865 4.57151 21.6866 6.99698 22.3628 10.289C22.4031 10.4902 22.4031 10.6916 22.3628 10.8928C22.3442 10.9416 22.314 10.9819 22.2722 11.0136C21.0068 11.0833 19.7387 11.0934 18.468 11.0438C18.4127 11.0212 18.3623 10.991 18.317 10.9532C18.165 8.79512 17.6618 6.72193 16.8074 4.73358C16.4931 4.09809 16.1308 3.49425 15.7205 2.92204C15.6819 2.81546 15.6919 2.7148 15.7507 2.62012Z" fill="current"/>
<path opacity="0.969" fill-rule="evenodd" clip-rule="evenodd" d="M2.58625 12.9459C3.83434 12.9358 5.08231 12.9459 6.3301 12.9761C6.38542 12.9987 6.43578 13.0289 6.48106 13.0667C6.63311 15.2248 7.13636 17.298 7.99068 19.2863C8.30498 19.9218 8.66729 20.5257 9.07761 21.0979C9.13401 21.3746 9.02326 21.4652 8.74549 21.3696C5.18974 19.8767 3.07627 17.2299 2.4051 13.429C2.37958 13.2308 2.43997 13.0698 2.58625 12.9459Z" fill="current"/>
<path opacity="0.981" fill-rule="evenodd" clip-rule="evenodd" d="M8.80599 12.9459C11.2013 12.9358 13.5966 12.9459 15.9918 12.9761C16.1376 13.048 16.2181 13.1688 16.2333 13.3384C16.0398 16.2944 15.1039 18.9815 13.4254 21.3998C13.2607 21.5793 13.0896 21.7504 12.9122 21.913C12.4416 22.0857 12.0189 22.0153 11.6441 21.7017C10.1543 19.8217 9.21836 17.6881 8.83618 15.3009C8.73317 14.6479 8.64259 13.9937 8.56445 13.3384C8.58474 13.1621 8.6653 13.0312 8.80599 12.9459Z" fill="current"/>
<path opacity="0.968" fill-rule="evenodd" clip-rule="evenodd" d="M18.4681 12.9459C19.7162 12.9358 20.9641 12.9459 22.2119 12.9761C22.3598 13.0886 22.4202 13.2396 22.3931 13.429C21.7507 17.1599 19.6976 19.7867 16.2339 21.3092C16.0782 21.3847 15.9173 21.4049 15.7508 21.3696C15.6871 21.2858 15.6771 21.1952 15.7206 21.0979C16.8651 19.4373 17.6098 17.6056 17.9548 15.6028C18.0951 14.8028 18.1958 13.9976 18.2567 13.1875C18.2984 13.0757 18.3688 12.9952 18.4681 12.9459Z" fill="current"/>
</svg>
