<svg width="25" height="24" viewBox="0 0 25 24" fill="none" xmlns="http://www.w3.org/2000/svg">
<path opacity="0.987" fill-rule="evenodd" clip-rule="evenodd" d="M10.9773 2.02597C15.2502 1.76814 18.5219 3.42997 20.7926 7.01153C22.0432 9.288 22.3963 11.6977 21.8521 14.2406C20.7107 18.4563 17.9998 21.0011 13.7194 21.8747C9.40217 22.3796 6.02651 20.8528 3.59243 17.2943C2.10104 14.7737 1.72712 12.0939 2.47068 9.25504C3.84775 5.12525 6.68329 2.7156 10.9773 2.02597ZM11.1019 4.0202C11.767 4.00979 12.4318 4.0202 13.0962 4.05136C13.3126 4.07124 13.4891 4.16472 13.6259 4.33179C13.7082 6.57 13.7497 8.8135 13.7505 11.0623C15.1735 12.3191 16.5965 13.5758 18.0194 14.8326C18.4041 15.1151 18.4768 15.4579 18.2375 15.8609C17.7481 16.4539 17.2392 17.0252 16.7107 17.5747C16.5653 17.6163 16.4198 17.6163 16.2745 17.5747C14.428 15.9984 12.5999 14.3988 10.7903 12.7761C10.6733 12.6799 10.5798 12.5657 10.5099 12.4333C10.4683 9.77435 10.4683 7.11542 10.5099 4.45643C10.6399 4.21058 10.8373 4.06513 11.1019 4.0202Z" fill="white"/>
</svg>
