<svg width="24" height="24" viewBox="0 0 24 24" fill="current" xmlns="http://www.w3.org/2000/svg">
<path opacity="0.99" fill-rule="evenodd" clip-rule="evenodd" d="M2.75902 3.00368C9.0532 2.99386 15.3473 3.00368 21.6414 3.0331C21.9061 3.14092 22.0924 3.32721 22.2002 3.59192C22.1583 9.26045 22.0407 14.9272 21.8473 20.5919C21.7394 20.8566 21.5531 21.0429 21.2884 21.1507C15.2296 21.19 9.17078 21.19 3.11196 21.1507C2.65586 20.935 2.44998 20.5723 2.49431 20.0625C2.35195 14.5727 2.25391 9.08257 2.2002 3.59192C2.31915 3.32604 2.50543 3.12998 2.75902 3.00368ZM7.58255 6.18016C8.88284 6.08974 9.67696 6.67798 9.9649 7.94486C9.99596 9.12763 9.43714 9.86292 8.28843 10.1507C6.90708 10.2108 6.12278 9.55392 5.93549 8.18016C6.03914 7.13621 6.58814 6.46957 7.58255 6.18016ZM14.9943 9.94486C16.7531 11.0258 18.3511 12.3199 19.7884 13.8272C19.8063 15.4954 19.7671 17.1621 19.6708 18.8272C19.5466 19.0886 19.3407 19.2357 19.0531 19.2684C14.4845 19.3076 9.9159 19.3076 5.34725 19.2684C4.80743 19.1413 4.58196 18.7982 4.67078 18.239C4.63808 17.062 4.61849 15.8856 4.61196 14.7096C5.22561 14.1742 5.87267 13.684 6.55314 13.239C7.41072 13.8222 8.23425 14.4496 9.02372 15.1213C10.8082 13.1394 12.7984 11.4139 14.9943 9.94486Z" fill="current"/>
</svg>
