<svg width="25" height="24" viewBox="0 0 25 24" fill="none" xmlns="http://www.w3.org/2000/svg">
<path opacity="0.986" fill-rule="evenodd" clip-rule="evenodd" d="M14.172 2C16.4572 3.11562 18.4771 4.60114 20.2318 6.45652C20.36 6.61196 20.4778 6.775 20.585 6.94565C19.812 7.92706 18.9243 8.78755 17.922 9.52717C16.75 10.417 15.509 11.2051 14.1992 11.8913C14.172 10.8589 14.1629 9.82625 14.172 8.79348C12.7588 8.7844 11.3458 8.79348 9.93285 8.82065C7.6309 8.88886 5.49318 9.51386 3.51981 10.6957C3.33525 8.02935 4.4403 6.11815 6.83503 4.96196C7.24068 4.81071 7.65731 4.70201 8.08503 4.63587C10.1139 4.6087 12.1429 4.59962 14.172 4.6087C14.172 3.73913 14.172 2.86957 14.172 2Z" fill="white"/>
<path opacity="0.981" fill-rule="evenodd" clip-rule="evenodd" d="M10.6393 12.1087C10.7473 13.0853 10.7835 14.0817 10.748 15.0978C12.2336 15.1069 13.7191 15.0978 15.2045 15.0707C17.3001 14.9364 19.2566 14.3476 21.0741 13.3044C21.2364 15.7065 20.2581 17.4728 18.1393 18.6033C17.5839 18.8508 17.0041 19.0139 16.4002 19.0924C14.5162 19.1196 12.6321 19.1286 10.748 19.1196C10.748 20.0797 10.748 21.0398 10.748 22C8.49904 20.9027 6.49719 19.4535 4.74257 17.6522C4.5848 17.4765 4.44893 17.2863 4.33496 17.0815C4.41235 16.9135 4.51197 16.7595 4.63387 16.6196C6.39964 14.7889 8.40143 13.2853 10.6393 12.1087Z" fill="white"/>
</svg>
