<svg width="82" height="16" viewBox="0 0 82 16" fill="none" xmlns="http://www.w3.org/2000/svg">
<g clip-path="url(#clip0_26269_26738)">
<path d="M53.2762 8.58737H59.8643V6.55031H53.2762V5.5044H59.9709V3.45618H50.5764V11.8279H60.0482V9.73384H53.2762V8.58737Z" fill="white"/>
<path d="M29.6992 6.52238L28.2864 6.50227C26.5744 6.46874 26.3457 6.14023 26.3457 5.78153C26.3457 5.42284 26.4937 5.06079 28.5253 5.06079H28.7069C30.9089 5.06079 31.0772 5.74801 31.1343 6.06648H33.8655V5.95473C33.8655 4.69428 32.9686 3.31091 28.9883 3.31091H28.2114C24.3825 3.31091 23.6358 4.61718 23.6358 5.86757V5.96479C23.6358 7.27217 24.5966 8.33037 27.7348 8.42311L29.1801 8.45662C31.1209 8.5136 31.3832 8.81759 31.3832 9.30029C31.3832 9.783 31.1242 10.1943 28.9166 10.1943H28.7585C26.5901 10.1943 26.2919 9.37401 26.2638 8.86781H23.5248V9.00197C23.5248 10.1048 24.0428 11.9944 28.4468 11.9944H29.2249C33.4484 11.9944 34.148 10.5764 34.148 9.2008V9.0198C34.148 7.34592 32.852 6.57937 29.6992 6.52238Z" fill="white"/>
<path d="M68.2727 3.45618H64.8632L63.5178 6.10111L60.615 11.8313H63.289L64.0492 10.297H69.1405L69.9175 11.829H72.7654L69.6921 6.10111L68.2727 3.45618ZM64.9876 8.40746L66.1324 6.10111L66.5449 5.26863L66.9767 6.10334L68.1685 8.4097L64.9876 8.40746Z" fill="white"/>
<path d="M70.7065 3.45538V5.78968H74.6879V11.8271H77.3181V5.78968H81.3028V3.45538H70.7065Z" fill="white"/>
<path d="M48.5701 3.45538L45.9533 3.46097L47.3133 6.10031L45.6528 9.60902L42.2948 3.45538L39.5973 3.46097L41.0828 6.33274L39.5357 9.60902L36.1597 3.45538H33.4644L37.8337 11.8249H41.1052L42.4765 9.0056L43.9486 11.8249H47.2236L50.003 6.10031L48.5701 3.45538Z" fill="white"/>
<path d="M0.468933 5.00397L0.495968 5.0545V4.97479L0.468933 5.00397Z" fill="white"/>
<path d="M14.5225 0.572937H11.5189L9.12623 3.13295L7.72584 0.572937H4.60782L0.4953 4.96999V5.04932L5.90728 14.944H8.96139L11.3215 12.4176L12.7039 14.944H15.8735L19.977 10.5515L14.5225 0.572937ZM7.58569 12.65L3.61781 5.3946L6.025 2.82454L9.9918 10.0766L7.58569 12.65ZM14.425 12.7283L10.4559 5.47505L12.8632 2.90499L16.831 10.1604L14.425 12.7283Z" fill="white"/>
</g>
<defs>
<clipPath id="clip0_26269_26738">
<rect width="82" height="15.2165" fill="white"/>
</clipPath>
</defs>
</svg>
