<svg preserveAspectRatio="none" width="100%" height="100%" overflow="visible" style="display: block;" viewBox="0 0 336 266" fill="none" xmlns="http://www.w3.org/2000/svg">
<path id="Vector" style="mix-blend-mode:screen" opacity="0.12" d="M335.562 22.3144V7.43813L322.647 0L310.259 7.14545L297.865 0L285.476 7.14545L273.087 0L260.698 7.14545L248.304 0L235.915 7.14545L223.526 0L211.137 7.14545L198.743 0L186.354 7.14545L173.945 0L161.576 7.14545L149.197 0L136.793 7.14545L124.404 0L112.015 7.14545L99.6266 0L87.2326 7.14545L74.8437 0L62.4547 7.14545L50.0658 0L37.6718 7.14545L25.2829 0L12.3889 7.43813V21.7341L0 28.8795V43.7608L12.3889 50.9063V64.6169L0 71.7674V86.6436L12.3889 93.7891V107.5L0 114.65V129.526L12.3889 136.672V150.387L0 157.533V172.409L12.3889 179.56V193.27L0 200.416V215.297L12.3889 222.442V236.153L0 243.304V258.18L12.894 265.618L25.2829 258.472L37.6718 265.618L50.0658 258.472L62.4547 265.618L74.8437 258.472L87.2326 265.618L99.6266 258.472L112.015 265.618L124.404 258.472L136.793 265.618L149.197 258.472L161.591 265.618L173.945 258.472L186.334 265.618L198.723 258.472L211.117 265.618L223.506 258.472L235.895 265.618L248.284 258.472L260.678 265.618L273.066 258.472L285.455 265.618L297.844 258.472L310.238 265.618L323.132 258.18V243.884L335.562 236.738V221.857L323.152 214.691V201.001L335.562 193.851V178.974L323.173 171.829V158.118L335.562 150.968V136.092L323.173 128.946V115.23L335.562 108.085V93.2087L323.173 86.0582V72.3477L335.562 65.2022V50.3209L323.152 43.1755V29.4649L335.562 22.3144ZM316.218 26.0335L322.163 29.4649V43.1755L316.198 46.6019L310.259 50.0333L304.314 46.6019L298.37 43.1755V29.4649L304.314 26.0335L310.259 22.6071L316.218 26.0335ZM284.971 107.5L279.026 110.931L273.087 114.357L267.142 110.931L261.203 107.5V93.7891L267.142 90.3627L273.087 86.9363L279.026 90.3627L284.971 93.7891V107.5ZM285.476 108.378L291.42 111.804L297.359 115.23V128.946L285.476 135.799L273.592 128.946V115.23L279.531 111.804L285.476 108.378ZM266.637 111.804L272.582 115.23V128.946L260.698 135.799L248.809 128.946V115.23L254.753 111.804L260.698 108.378L266.637 111.804ZM260.193 107.5L254.248 110.931L248.304 114.357L242.364 110.931L236.42 107.5V93.7891L242.364 90.3627L248.304 86.9363L254.248 90.3627L260.193 93.7891V107.5ZM241.859 111.804L247.799 115.23V128.946L235.915 135.799L224.031 128.946V115.23L229.97 111.804L235.915 108.378L241.859 111.804ZM235.41 107.5L229.465 110.931L223.526 114.357L217.581 110.931L211.642 107.5V93.7891L217.581 90.3627L223.526 86.9363L229.465 90.3627L235.41 93.7891V107.5ZM217.076 111.804L223.021 115.23V128.946L211.137 135.799L199.248 128.946V115.23L205.193 111.804L211.137 108.378L217.076 111.804ZM210.632 107.5L204.687 110.931L198.743 114.357L192.804 110.931L186.859 107.5V93.7891L192.804 90.3627L198.743 86.9363L204.687 90.3627L210.632 93.7891V107.5ZM192.299 111.804L198.238 115.23V128.946L186.354 135.799L174.45 128.946V115.23L180.394 111.804L186.334 108.378L192.299 111.804ZM185.849 107.5L179.91 110.931L173.945 114.357L168 110.931L162.061 107.5V93.7891L168 90.3627L173.945 86.9363L179.889 90.3627L185.829 93.7891L185.849 107.5ZM167.516 111.804L173.44 115.23V128.946L161.556 135.799L149.702 128.946V115.23L155.647 111.804L161.591 108.378L167.516 111.804ZM161.071 107.5L155.127 110.931L149.197 114.357L143.258 110.931L137.314 107.5V93.7891L143.258 90.3627L149.197 86.9363L155.142 90.3627L161.086 93.7891L161.071 107.5ZM142.738 111.804L148.692 115.23V128.946L136.808 135.799L124.925 128.946V115.23L130.869 111.804L136.808 108.378L142.738 111.804ZM136.288 107.5L130.349 110.931L124.404 114.357L118.46 110.931L112.521 107.5V93.7891L118.46 90.3627L124.404 86.9363L130.349 90.3627L136.288 93.7891V107.5ZM117.955 111.804L123.899 115.23V128.946L112.015 135.799L100.132 128.946V115.23L106.071 111.804L112.015 108.378L117.955 111.804ZM111.51 107.5L105.566 110.931L99.6266 114.357L93.6821 110.931L87.7376 107.5V93.7891L93.6821 90.3627L99.6266 86.9363L105.566 90.3627L111.51 93.7891V107.5ZM93.177 111.804L99.1215 115.23V128.946L87.2326 135.799L75.3487 128.946V115.23L81.2932 111.804L87.2326 108.378L93.177 111.804ZM86.7275 107.5L80.7881 110.931L74.8437 114.357L68.8941 110.931L62.9547 107.5V93.7891L68.8941 90.3627L74.8386 86.9363L80.7831 90.3627L86.7225 93.7891L86.7275 107.5ZM68.3891 111.804L74.3336 115.23V128.946L62.4547 135.799L50.5709 128.946V115.23L56.5103 111.804L62.4547 108.378L68.3891 111.804ZM61.9446 107.5L56.0002 110.931L50.0658 114.357L44.1466 110.931L38.2021 107.5V93.7891L44.1466 90.3627L50.0911 86.9363L56.0305 90.3627L61.9749 93.7891L61.9446 107.5ZM43.6415 111.804L49.5608 115.23V128.946L37.6718 135.799L25.788 128.946V115.23L31.7324 111.804L37.6718 108.378L43.6415 111.804ZM43.6415 154.697L49.586 158.128V171.839L43.6415 175.255L37.6971 178.682L31.7577 175.255L25.8132 171.829V158.118L31.7577 154.687L37.6971 151.26L43.6415 154.697ZM44.1466 153.824L38.2021 150.398V136.672L50.0658 129.819L61.9497 136.672V150.387L56.0052 153.814L50.0658 157.24L44.1466 153.824ZM50.5961 158.128L56.5355 154.697L62.48 151.271L68.3891 154.687L74.3336 158.118V171.829L68.3891 175.255L62.4497 178.682L56.5052 175.255L50.5709 171.829L50.5961 158.128ZM68.8941 153.814L62.9547 150.387V136.672L74.8386 129.819L86.7225 136.672V150.387L80.7831 153.814L74.8386 157.24L68.8941 153.814ZM75.3437 158.118L81.2881 154.687L87.2275 151.26L93.172 154.687L99.1164 158.118V171.829L93.172 175.255L87.2275 178.682L81.2881 175.255L75.3437 171.829V158.118ZM93.677 153.814L87.7326 150.387V136.672L99.6215 129.819L111.505 136.672V150.387L105.561 153.814L99.6215 157.24L93.677 153.814ZM100.127 158.118L106.066 154.687L112.01 151.26L117.95 154.687L123.894 158.118V171.829L117.95 175.255L112.01 178.682L106.066 175.255L100.127 171.829V158.118ZM118.455 153.814L112.515 150.387V136.672L124.399 129.819L136.283 136.672V150.387L130.344 153.814L124.399 157.24L118.455 153.814ZM124.904 158.118L130.849 154.687L136.788 151.26L142.733 154.687L148.672 158.118V171.829L142.733 175.255L136.788 178.682L130.849 175.255L124.904 171.829V158.118ZM143.238 153.814L137.293 150.387V136.672L149.197 129.819L161.086 136.672V150.387L155.142 153.814L149.197 157.24L143.238 153.814ZM149.702 158.118L155.647 154.687L161.591 151.26L167.531 154.687L173.475 158.118V171.829L167.531 175.255L161.591 178.682L155.647 175.255L149.702 171.829V158.118ZM168.036 153.814L162.096 150.387V136.672L173.945 129.819L185.829 136.672V150.387L179.889 153.814L173.945 157.24L168.036 153.814ZM174.45 158.118L180.394 154.687L186.334 151.26L192.278 154.687L198.218 158.118V171.829L192.278 175.255L186.334 178.682L180.394 175.255L174.45 171.829V158.118ZM192.783 153.814L186.839 150.387V136.672L198.723 129.819L210.612 136.672V150.387L204.667 153.814L198.723 157.24L192.783 153.814ZM199.228 158.118L205.172 154.687L211.117 151.26L217.056 154.687L223.001 158.118V171.829L217.056 175.255L211.117 178.682L205.172 175.255L199.228 171.829V158.118ZM217.561 153.814L211.622 150.387V136.672L223.506 129.819L235.39 136.672V150.387L229.445 153.814L223.506 157.24L217.561 153.814ZM224.011 158.118L229.95 154.687L235.895 151.26L241.839 154.687L247.778 158.118V171.829L241.839 175.255L235.895 178.682L229.95 175.255L224.011 171.829V158.118ZM242.344 153.814L236.4 150.387V136.672L248.284 129.819L260.172 136.672V150.387L254.248 153.814L248.304 157.24L242.344 153.814ZM248.789 158.118L254.733 154.687L260.678 151.26L266.617 154.687L272.561 158.118V171.829L266.617 175.255L260.678 178.682L254.753 175.255L248.809 171.829L248.789 158.118ZM267.122 153.814L261.183 150.387V136.672L273.066 129.819L284.95 136.672V150.387L279.006 153.814L273.066 157.24L267.122 153.814ZM273.572 158.118L279.511 154.687L285.455 151.26L291.4 154.687L297.339 158.118V171.829L291.4 175.255L285.455 178.682L279.511 175.255L273.572 171.829V158.118ZM291.905 153.814L285.96 150.387V136.672L297.844 129.819L309.733 136.672V150.387L303.789 153.814L297.844 157.24L291.905 153.814ZM291.905 110.921L285.96 107.49V93.7891L291.905 90.3627L297.844 86.9363L303.789 90.3627L309.733 93.7891V107.5L303.789 110.931L297.844 114.357L291.905 110.921ZM291.905 68.0281L285.96 64.5967V50.9063L291.905 47.4799L297.844 44.0485L303.789 47.4799L309.733 50.9063V64.6169L303.789 68.0483L297.844 71.4747L291.905 68.0281ZM291.4 68.9011L297.339 72.3275V86.0381L291.4 89.4695L285.455 92.8959L279.511 89.4695L273.572 86.0381V72.3477L279.511 68.9213L285.455 65.4899L291.4 68.9011ZM284.95 64.5967L279.006 68.0281L273.066 71.4545L267.122 68.0281L261.183 64.5967V50.9063L267.122 47.4799L273.066 44.0485L279.006 47.4799L284.95 50.9063V64.5967ZM266.617 68.9011L272.561 72.3275V86.0381L266.617 89.4695L260.678 92.8959L254.753 89.4897L248.809 86.0582V72.3477L254.753 68.9213L260.698 65.4899L266.617 68.9011ZM260.172 64.5967L254.248 68.0483L248.304 71.4747L242.364 68.0483L236.42 64.6169V50.9063L242.364 47.4799L248.304 44.0485L254.248 47.4799L260.193 50.9063L260.172 64.5967ZM241.839 68.9011L247.778 72.3275V86.0381L241.839 89.4695L235.895 92.8959L229.95 89.4695L224.011 86.0381V72.3477L229.95 68.9213L235.895 65.4899L241.839 68.9011ZM235.41 64.6169L229.465 68.0483L223.526 71.4747L217.581 68.0483L211.642 64.6169V50.9063L217.581 47.4799L223.526 44.0485L229.465 47.4799L235.41 50.9063V64.6169ZM217.076 68.9213L223.021 72.3477V86.0582L217.076 89.4897L211.137 92.9161L205.193 89.4897L199.248 86.0582V72.3477L205.193 68.9213L211.137 65.4899L217.076 68.9213ZM210.632 64.6169L204.687 68.0483L198.743 71.4747L192.804 68.0483L186.859 64.6169V50.9063L192.804 47.4799L198.743 44.0485L204.687 47.4799L210.632 50.9063V64.6169ZM192.299 68.9213L198.238 72.3477V86.0582L192.299 89.4897L186.354 92.9161L180.415 89.4897L174.45 86.0582V72.3477L180.394 68.9213L186.334 65.4899L192.299 68.9213ZM185.849 64.6169L179.91 68.0483L173.945 71.4747L168 68.0483L162.061 64.6169V50.9063L168 47.4799L173.945 44.0485L179.889 47.4799L185.829 50.9063L185.849 64.6169ZM167.516 68.9213L173.44 72.3477V86.0582L167.495 89.4897L161.556 92.9161L155.612 89.4897L149.702 86.0582V72.3477L155.647 68.9213L161.591 65.4899L167.516 68.9213ZM161.071 64.6169L155.127 68.0483L149.197 71.4747L143.258 68.0483L137.314 64.6169V50.9063L143.258 47.4799L149.197 44.0485L155.142 47.4799L161.086 50.9063L161.071 64.6169ZM142.738 68.9213L148.692 72.3477V86.0582L142.753 89.4897L136.808 92.9161L130.869 89.4897L124.925 86.0582V72.3477L130.869 68.9213L136.808 65.4899L142.738 68.9213ZM136.288 64.6169L130.349 68.0483L124.404 71.4747L118.46 68.0483L112.521 64.6169V50.9063L118.46 47.4799L124.404 44.0485L130.349 47.4799L136.288 50.9063V64.6169ZM117.955 68.9213L123.899 72.3477V86.0582L117.955 89.4897L112.015 92.9161L106.071 89.4897L100.132 86.0582V72.3477L106.071 68.9213L112.015 65.4899L117.955 68.9213ZM111.51 64.6169L105.566 68.0483L99.6266 71.4747L93.6821 68.0483L87.7376 64.6169V50.9063L93.6821 47.4799L99.6266 44.0485L105.566 47.4799L111.51 50.9063V64.6169ZM93.177 68.9213L99.1215 72.3477V86.0582L93.177 89.4897L87.2326 92.9161L81.2932 89.4897L75.3487 86.0582V72.3477L81.2932 68.9213L87.2326 65.4899L93.177 68.9213ZM86.7275 64.6169L80.7881 68.0483L74.8437 71.4747L68.8941 68.0483L62.9547 64.6169V50.9063L68.8941 47.4799L74.8386 44.0485L80.7831 47.4799L86.7225 50.9063L86.7275 64.6169ZM68.3891 68.9213L74.3336 72.3477V86.0582L68.3891 89.4897L62.4497 92.9161L56.5052 89.4897L50.5658 86.0582V72.3477L56.5052 68.9213L62.4497 65.4899L68.3891 68.9213ZM61.9497 64.6169L56.0052 68.0483L50.0658 71.4747L44.1466 68.0483L38.2021 64.6169V50.9063L44.1466 47.4799L50.0911 44.0485L56.0305 47.4799L61.9749 50.9063L61.9497 64.6169ZM43.6415 68.9213L49.586 72.3477V86.0582L43.6415 89.4897L37.6971 92.9161L31.7577 89.4897L25.8132 86.0582V72.3477L31.7577 68.9213L37.6971 65.4899L43.6415 68.9213ZM37.192 64.6169L31.2526 68.0483L25.3082 71.4747L19.3687 68.0483L13.4243 64.6169V50.9063L19.3687 47.4799L25.3082 44.0485L31.2526 47.4799L37.192 50.9063V64.6169ZM31.2526 90.3526L37.192 93.779V107.49L31.2526 110.921L25.3082 114.347L19.3687 110.921L13.4243 107.49V93.7891L19.3687 90.3627L25.3082 86.9363L31.2526 90.3526ZM37.192 136.662V150.377L31.2526 153.804L25.3082 157.23L19.3687 153.804L13.4243 150.377V136.672L25.3082 129.819L37.192 136.662ZM31.2526 176.118L37.192 179.55V193.26L31.2526 196.687L25.3082 200.118L19.3687 196.687L13.4243 193.26V179.56L19.3687 176.128L25.3082 172.702L31.2526 176.118ZM25.8132 200.991L31.7577 197.56L37.6971 194.133L43.6415 197.57L49.586 201.001V214.691L43.6415 218.138L37.6971 221.569L31.7577 218.138L25.788 214.691L25.8132 200.991ZM44.1466 196.697L38.2021 193.27V179.56L44.1466 176.128L50.0911 172.702L56.0305 176.128L61.9749 179.56V193.27L56.0305 196.697L50.0911 200.128L44.1466 196.697ZM50.5961 201.001L56.5355 197.57L62.48 194.143L68.3891 197.57L74.3336 201.001V214.691L68.3891 218.138L62.4497 221.569L56.5052 218.138L50.5709 214.691L50.5961 201.001ZM68.8941 196.697L62.9547 193.27V179.56L68.8941 176.128L74.8386 172.702L80.7831 176.128L86.7225 179.56V193.27L80.7831 196.697L74.8386 200.128L68.8941 196.697ZM75.3437 201.001L81.2881 197.57L87.2275 194.143L93.172 197.57L99.1164 201.001V214.691L93.172 218.118L87.2275 221.549L81.2881 218.118L75.3487 214.691L75.3437 201.001ZM93.677 196.697L87.7326 193.27V179.56L93.677 176.128L99.6215 172.702L105.561 176.128L111.505 179.56V193.27L105.561 196.697L99.6215 200.128L93.677 196.697ZM100.127 201.001L106.066 197.57L112.01 194.143L117.95 197.57L123.894 201.001V214.691L117.95 218.118L112.01 221.549L106.066 218.118L100.132 214.691L100.127 201.001ZM118.455 196.697L112.515 193.27V179.56L118.455 176.128L124.399 172.702L130.344 176.128L136.283 179.56V193.27L130.344 196.697L124.399 200.128L118.455 196.697ZM124.904 201.001L130.849 197.57L136.788 194.143L142.733 197.57L148.672 201.001V214.691L142.733 218.118L136.788 221.549L130.849 218.118L124.909 214.691L124.904 201.001ZM143.238 196.697L137.293 193.27V179.56L143.238 176.128L149.197 172.702L155.142 176.128L161.086 179.56V193.27L155.142 196.697L149.197 200.128L143.238 196.697ZM149.702 201.001L155.647 197.57L161.591 194.143L167.531 197.57L173.475 201.001V214.691L167.531 218.118L161.591 221.549L155.647 218.118L149.702 214.691V201.001ZM168.036 196.697L162.096 193.27V179.56L168.036 176.128L173.945 172.702L179.889 176.128L185.829 179.56V193.27L179.889 196.697L173.945 200.128L168.036 196.697ZM174.45 201.001L180.394 197.57L186.334 194.143L192.278 197.57L198.218 201.001V214.691L192.278 218.118L186.334 221.549L180.394 218.118L174.45 214.691V201.001ZM192.783 196.697L186.839 193.27V179.56L192.783 176.128L198.723 172.702L204.667 176.128L210.612 179.56V193.27L204.667 196.697L198.723 200.128L192.783 196.697ZM199.228 201.001L205.172 197.57L211.117 194.143L217.056 197.57L223.001 201.001V214.691L217.056 218.118L211.117 221.549L205.172 218.118L199.248 214.691L199.228 201.001ZM217.561 196.697L211.622 193.27V179.56L217.561 176.128L223.506 172.702L229.445 176.128L235.39 179.56V193.27L229.445 196.697L223.506 200.128L217.561 196.697ZM224.011 201.001L229.95 197.57L235.895 194.143L241.839 197.57L247.778 201.001V214.691L241.839 218.118L235.895 221.549L229.95 218.118L224.031 214.691L224.011 201.001ZM242.344 196.697L236.4 193.27V179.56L242.344 176.128L248.284 172.702L254.248 176.128L260.193 179.56V193.27L254.248 196.697L248.304 200.128L242.344 196.697ZM248.789 201.001L254.733 197.57L260.678 194.143L266.617 197.57L272.561 201.001V214.691L266.617 218.118L260.678 221.549L254.753 218.138L248.809 214.691L248.789 201.001ZM267.122 196.697L261.183 193.27V179.56L267.122 176.128L273.066 172.702L279.006 176.128L284.95 179.56V193.27L279.006 196.697L273.066 200.128L267.122 196.697ZM273.572 201.001L279.511 197.57L285.455 194.143L291.4 197.57L297.339 201.001V214.691L291.4 218.118L285.455 221.549L279.511 218.118L273.592 214.691L273.572 201.001ZM291.905 196.697L285.96 193.27V179.56L291.905 176.128L297.844 172.702L303.789 176.128L309.733 179.56V193.27L303.789 196.697L297.844 200.128L291.905 196.697ZM298.349 201.001L304.294 197.57L310.238 194.143L316.178 197.57L322.122 201.001V214.691L316.178 218.118L310.238 221.549L304.294 218.118L298.37 214.691L298.349 201.001ZM304.294 175.265L298.349 171.839V158.118L304.294 154.687L310.238 151.26L316.178 154.687L322.122 158.118V171.829L316.178 175.255L310.238 178.682L304.294 175.265ZM298.349 128.956V115.23L304.294 111.804L310.238 108.378L316.178 111.804L322.122 115.23V128.946L310.259 135.799L298.349 128.956ZM304.294 89.4998L298.349 86.0683V72.3477L304.294 68.9213L310.238 65.4899L316.178 68.9213L322.122 72.3477V86.0582L316.178 89.4897L310.238 92.9161L304.294 89.4998ZM285.981 8.02349L297.865 1.16568L309.753 8.02349V21.7341L303.809 25.1605L297.865 28.5919L291.925 25.1605L285.981 21.7341V8.02349ZM291.42 26.0335L297.359 29.4649V43.1755L291.42 46.6019L285.476 50.0333L279.531 46.6019L273.592 43.1755V29.4649L279.531 26.0335L285.476 22.6071L291.42 26.0335ZM261.203 8.02349L273.087 1.16568L284.971 8.02349V21.7341L279.026 25.1605L273.087 28.5919L267.142 25.1605L261.203 21.7341V8.02349ZM266.637 26.0335L272.582 29.4649V43.1755L266.637 46.6019L260.698 50.0333L254.753 46.6019L248.809 43.1755V29.4649L254.753 26.0335L260.698 22.6071L266.637 26.0335ZM236.42 8.02349L248.304 1.16568L260.193 8.02349V21.7341L254.248 25.1605L248.304 28.5919L242.364 25.1605L236.42 21.7341V8.02349ZM241.859 26.0335L247.799 29.4649V43.1755L241.859 46.6019L235.915 50.0333L229.97 46.6019L224.031 43.1755V29.4649L229.97 26.0335L235.915 22.6071L241.859 26.0335ZM211.642 8.02349L223.526 1.16568L235.41 8.02349V21.7341L229.465 25.1605L223.526 28.5919L217.581 25.1605L211.642 21.7341V8.02349ZM217.076 26.0335L223.021 29.4649V43.1755L217.076 46.6019L211.137 50.0333L205.193 46.6019L199.248 43.1755V29.4649L205.193 26.0335L211.137 22.6071L217.076 26.0335ZM186.859 8.02349L198.743 1.16568L210.632 8.02349V21.7341L204.687 25.1605L198.743 28.5919L192.804 25.1605L186.859 21.7341V8.02349ZM192.299 26.0335L198.238 29.4649V43.1755L192.299 46.6019L186.354 50.0333L180.415 46.6019L174.45 43.1755V29.4649L180.394 26.0335L186.334 22.6071L192.299 26.0335ZM162.081 8.02349L173.945 1.16568L185.849 8.02349V21.7341L179.91 25.1605L173.945 28.5919L168 25.1605L162.061 21.7341L162.081 8.02349ZM167.516 26.0335L173.44 29.4649V43.1755L167.516 46.6019L161.576 50.0333L155.632 46.6019L149.702 43.1755V29.4649L155.647 26.0335L161.591 22.6071L167.516 26.0335ZM137.298 8.02349L149.197 1.16568L161.071 8.02349V21.7341L155.127 25.1605L149.197 28.5919L143.258 25.1605L137.314 21.7341L137.298 8.02349ZM142.738 26.0335L148.692 29.4649V43.1755L142.738 46.6019L136.793 50.0333L130.854 46.6019L124.909 43.1755V29.4649L130.854 26.0335L136.793 22.6071L142.738 26.0335ZM112.521 8.02349L124.404 1.16568L136.288 8.02349V21.7341L130.349 25.1605L124.404 28.5919L118.46 25.1605L112.521 21.7341V8.02349ZM117.955 26.0335L123.899 29.4649V43.1755L117.955 46.6019L112.015 50.0333L106.071 46.6019L100.132 43.1755V29.4649L106.071 26.0335L112.015 22.6071L117.955 26.0335ZM87.7376 8.02349L99.6266 1.16568L111.51 8.02349V21.7341L105.566 25.1605L99.6266 28.5919L93.6821 25.1605L87.7376 21.7341V8.02349ZM93.177 26.0335L99.1215 29.4649V43.1755L93.177 46.6019L87.2326 50.0333L81.2932 46.6019L75.3487 43.1755V29.4649L81.2932 26.0335L87.2326 22.6071L93.177 26.0335ZM62.9598 8.02349L74.8437 1.16568L86.7275 8.02349V21.7341L80.7881 25.1605L74.8437 28.5919L68.8941 25.1605L62.9598 21.7341V8.02349ZM68.3891 26.0335L74.3336 29.4649V43.1755L68.3891 46.6019L62.4547 50.0333L56.5103 46.6019L50.5709 43.1755V29.4649L56.5103 26.0335L62.4547 22.6071L68.3891 26.0335ZM38.1769 8.02349L50.0658 1.16568L61.9497 8.02349V21.7341L56.0052 25.1605L50.0658 28.5919L44.1466 25.1605L38.2021 21.7341L38.1769 8.02349ZM43.6415 26.0335L49.586 29.4649V43.1755L43.6415 46.6019L37.6971 50.0333L31.7577 46.6019L25.8132 43.1755V29.4649L31.7577 26.0335L37.6971 22.6071L43.6415 26.0335ZM13.399 8.02349L25.2829 1.16568L37.1668 8.02349V21.7341L31.2274 25.1605L25.2829 28.5919L19.3435 25.1605L13.399 21.7341V8.02349ZM1.0101 43.1755V29.4649L12.894 22.6071L18.8384 26.0335L24.7779 29.4649V43.1755L18.8384 46.6019L12.894 50.0333L1.0101 43.1755ZM1.0101 86.0683V72.3477L12.894 65.4899L18.8384 68.9213L24.7779 72.3477V86.0582L18.8384 89.4897L12.894 92.9161L1.0101 86.0683ZM1.0101 128.961V115.23L12.894 108.378L18.8384 111.804L24.7779 115.23V128.946L12.894 135.799L1.0101 128.961ZM1.0101 171.854V158.118L12.894 151.26L18.8384 154.687L24.7779 158.118V171.829L18.8384 175.255L12.894 178.682L1.0101 171.854ZM1.0101 214.747V201.001L12.894 194.143L18.8384 197.57L24.7779 201.001V214.691L18.8384 218.118L12.894 221.549L1.0101 214.747ZM24.7779 257.64L12.894 264.498L1.0101 257.584V243.884L12.894 237.026L18.8384 240.457L24.7779 243.884V257.64ZM19.3435 239.63L13.399 236.198V222.442L19.3435 219.016L25.2829 215.585L31.2274 219.016L37.1668 222.442V236.153L31.2274 239.584L25.2829 243.011L19.3435 239.63ZM49.5608 257.584L37.6718 264.442L25.788 257.584V243.884L31.7324 240.457L37.6718 237.026L43.6415 240.457L49.586 243.884L49.5608 257.584ZM44.1466 239.584L38.2021 236.153V222.442L44.1466 219.016L50.0911 215.585L56.0305 219.016L61.9749 222.442V236.153L56.0305 239.584L50.0658 243.011L44.1466 239.584ZM74.3386 257.584L62.4547 264.452L50.5709 257.584V243.884L56.5103 240.457L62.4547 237.026L68.3891 240.457L74.3336 243.884L74.3386 257.584ZM68.8941 239.584L62.9547 236.153V222.442L68.8941 219.016L74.8386 215.585L80.7831 219.016L86.7225 222.442V236.153L80.7831 239.584L74.8386 243.011L68.8941 239.584ZM99.1215 257.584L87.2326 264.452L75.3487 257.584V243.884L81.2932 240.457L87.2326 237.026L93.177 240.457L99.1215 243.884V257.584ZM93.6821 239.584L87.7376 236.153V222.442L93.6821 219.016L99.6266 215.585L105.566 219.016L111.51 222.442V236.153L105.566 239.584L99.6266 243.011L93.6821 239.584ZM123.899 257.584L112.015 264.442L100.132 257.584V243.884L106.071 240.457L112.015 237.026L117.955 240.457L123.899 243.884V257.584ZM118.46 239.574L112.521 236.143V222.442L118.46 219.016L124.404 215.585L130.349 219.016L136.288 222.442V236.153L130.349 239.584L124.404 243.011L118.46 239.574ZM148.692 257.584L136.808 264.442L124.909 257.584V243.884L130.854 240.457L136.793 237.026L142.738 240.457L148.692 243.884V257.584ZM143.258 239.574L137.314 236.143V222.442L143.258 219.016L149.197 215.585L155.142 219.016L161.086 222.442V236.153L155.142 239.584L149.197 243.011L143.258 239.574ZM173.44 257.584L161.556 264.442L149.702 257.584V243.884L155.647 240.457L161.591 237.026L167.531 240.457L173.44 243.884V257.584ZM168 239.574L162.061 236.143V222.442L168 219.016L173.945 215.585L179.889 219.016L185.829 222.442V236.153L179.889 239.584L173.945 243.011L168 239.574ZM198.238 257.584L186.354 264.442L174.45 257.584V243.884L180.394 240.457L186.334 237.026L192.278 240.457L198.218 243.884L198.238 257.584ZM192.804 239.574L186.859 236.143V222.442L192.804 219.016L198.743 215.585L204.687 219.016L210.632 222.442V236.153L204.687 239.584L198.743 243.011L192.804 239.574ZM223.021 257.584L211.137 264.442L199.248 257.584V243.884L205.193 240.457L211.137 237.026L217.076 240.457L223.021 243.884V257.584ZM217.581 239.584L211.642 236.153V222.442L217.581 219.016L223.526 215.585L229.465 219.016L235.41 222.442V236.153L229.465 239.584L223.526 243.011L217.581 239.584ZM247.799 257.584L235.915 264.452L224.031 257.584V243.884L229.97 240.457L235.915 237.026L241.859 240.457L247.799 243.884V257.584ZM242.364 239.574L236.42 236.143V222.442L242.364 219.016L248.304 215.585L254.248 219.016L260.193 222.442V236.153L254.248 239.584L248.304 243.011L242.364 239.574ZM272.582 257.584L260.698 264.442L248.809 257.584V243.884L254.753 240.457L260.698 237.026L266.637 240.457L272.582 243.884V257.584ZM267.142 239.574L261.203 236.143V222.442L267.142 219.016L273.087 215.585L279.026 219.016L284.971 222.442V236.153L279.026 239.584L273.087 243.011L267.142 239.574ZM297.359 257.584L285.476 264.442L273.592 257.584V243.884L279.531 240.457L285.476 237.026L291.42 240.457L297.359 243.884V257.584ZM291.925 239.584L285.981 236.153V222.442L291.925 219.016L297.865 215.585L303.809 219.016L309.753 222.442V236.153L303.809 239.584L297.865 243.011L291.925 239.584ZM322.142 257.584L310.259 264.452L298.37 257.584V243.884L304.314 240.457L310.259 237.026L316.198 240.457L322.142 243.884V257.584ZM334.551 222.442V236.153L322.668 243.011L316.723 239.584L310.784 236.153V222.442L316.723 219.016L322.668 215.585L334.551 222.442ZM334.551 179.55V193.26L322.668 200.118L316.723 196.687L310.784 193.26V179.56L316.723 176.128L322.668 172.702L334.551 179.55ZM334.551 136.657V150.372L322.668 157.225L316.723 153.799L310.784 150.372V136.672L322.668 129.819L334.551 136.657ZM334.551 93.7638V107.474L322.668 114.332L316.723 110.906L310.784 107.474V93.7891L316.723 90.3627L322.668 86.9363L334.551 93.7638ZM334.551 50.871V64.6169L322.668 71.4747L316.723 68.0483L310.784 64.6169V50.9063L316.723 47.4799L322.668 44.0485L334.551 50.871ZM322.647 28.5919L316.703 25.1605L310.764 21.7341V8.02349L322.647 1.16568L334.551 8.02349V21.7341L322.647 28.5919Z" fill="url(#paint0_radial_26458_18392)"/>
<defs>
<radialGradient id="paint0_radial_26458_18392" cx="0" cy="0" r="1" gradientUnits="userSpaceOnUse" gradientTransform="translate(167.826 132.934) rotate(2.32187) scale(167.769 308.506)">
<stop stop-color="#210015" stop-opacity="0"/>
<stop offset="1" stop-color="#A12D64"/>
</radialGradient>
</defs>
</svg>
